<?xml version="1.0" standalone="no"?>
<!DOCTYPE svg PUBLIC "-//W3C//DTD SVG 1.1//EN" "http://www.w3.org/Graphics/SVG/1.1/DTD/svg11.dtd">
<svg xmlns="http://www.w3.org/2000/svg">
<defs >
<font id="Gabarito" horiz-adv-x="538" ><font-face
    font-family="Gabarito ExtraBold"
    units-per-em="1000"
    panose-1="0 0 0 0 0 0 0 0 0 0"
    ascent="940"
    descent="-260"
    alphabetic="0" />
<glyph unicode=" " horiz-adv-x="260" />
<glyph unicode="!" horiz-adv-x="284" d="M53 714H230L221 390L208 225H75L63 390L53 714ZM142 -7Q101 -7 72 21T43 92Q43 134 72 163T142 192Q183 192 212 163T242 92Q242 50 213 22T142 -7Z" />
<glyph unicode="&quot;" horiz-adv-x="419" d="M60 355L22 529V681H185V355H60ZM265 355L227 529V681H390V355H265Z" />
<glyph unicode="#" horiz-adv-x="698" d="M221 687H357L230 -2H94L221 687ZM665 525V399H79V525H665ZM619 286V160H33V286H619ZM453 687H590L462 -2H327L453 687Z" />
<glyph unicode="$" horiz-adv-x="565" d="M214 575V756H361V575H214ZM535 189Q535 130 504 84T416 12T286 -15Q199 -15 134 19T30 131L153 211Q187 161 224 147T295 132Q325 132 346 143T367 175Q367 190 356 203T316 230T232 254Q167 269 127 296T67 363T48 454Q48
512 77 559T160 633T291 661Q376 661 436 627T530 539L407 451Q383 483 348 495T279 508Q248 508 229 496T210 462Q210 449 218 438T249 419T312 400Q428 373 481 324T535 189ZM214 -127V48H361V-127H214Z" />
<glyph unicode="%" horiz-adv-x="799" d="M174 -15L77 57L618 682L715 610L174 -15ZM190 350Q143 350 103 373T39 434T15 520Q15 567 39 605T103 666T190 689Q239 689 278 667T341 606T365 520Q365 473 342 435T278 373T190 350ZM190 471Q212 471 226 484T240
520Q240 541 226 554T190 568Q168 568 155 555T141 520Q141 498 154 485T190 471ZM608 -15Q560 -15 521 8T458 70T434 155Q434 203 457 241T520 302T608 325Q657 325 696 303T760 242T784 155Q784 109 760 71T697 9T608 -15ZM608 107Q630 107 644 120T658 155Q658
177 644 190T608 204Q587 204 573 191T559 155Q559 133 573 120T608 107Z" />
<glyph unicode="&amp;" horiz-adv-x="644" d="M627 294H292Q251 294 224 275T197 219Q197 183 224 165T292 146Q344 146 364 179T384 271V362H547V263Q547 177 522 123T456 39T372 -2T291 -13Q208 -13 151 16T63 97T33 210Q33 262 66 309T158 385T297 415L284
334Q185 334 125 386T65 523Q65 570 89 614T163 688T286 718Q315 718 349 711T420 683T496 618L381 514Q354 541 334 551T289 561Q260 561 242 545T224 501Q224 473 248 455T318 437H627V294Z" />
<glyph unicode="&apos;" horiz-adv-x="215" d="M60 355L22 529V681H185V355H60Z" />
<glyph unicode="(" horiz-adv-x="352" d="M189 333Q189 217 230 129T344 -33L239 -132Q181 -80 135 -12T61 142T34 333Q34 438 61 523T134 677T239 798L344 699Q271 626 230 537T189 333Z" />
<glyph unicode=")" horiz-adv-x="352" d="M162 333Q162 448 122 537T8 699L113 798Q171 746 217 678T291 524T318 333Q318 228 291 143T218 -11T113 -132L8 -33Q81 40 121 128T162 333Z" />
<glyph unicode="*" horiz-adv-x="436" d="M169 329L64 383L141 481L22 469V577L136 565L62 661L166 715L222 608L277 713L379 660L309 566L414 577V469L305 481L379 385L277 331L223 432L169 329Z" />
<glyph unicode="+" horiz-adv-x="670" d="M253 90V591H414V90H253ZM89 261V418H582V261H89Z" />
<glyph unicode="," horiz-adv-x="293" d="M266 79Q266 17 230 -43T110 -164L29 -87Q67 -55 83 -25T99 33Q99 60 83 79T36 114Q46 152 65 172T108 200T154 208Q183 208 208 193T249 149T266 79Z" />
<glyph unicode="-" horiz-adv-x="370" d="M344 210H26V357H344V210Z" />
<glyph unicode="." horiz-adv-x="286" d="M143 -12Q113 -12 88 3T49 43T34 97Q34 127 48 151T88 191T142 206Q174 206 198 191T237 152T252 97Q252 68 238 43T199 3T143 -12Z" />
<glyph unicode="/" horiz-adv-x="507" d="M126 -114L-11 -51L381 753L518 690L126 -114Z" />
<glyph unicode="0" horiz-adv-x="570" d="M285 -13Q209 -13 151 29T62 150T30 339Q30 450 61 529T151 651T285 694Q363 694 420 651T508 529T540 339Q540 229 509 150T420 29T285 -13ZM285 146Q320 146 339 172T366 243T375 339Q375 386 367 431T340 504T285 533Q250
533 230 505T203 431T195 339Q195 287 203 243T231 173T285 146Z" />
<glyph unicode="1" horiz-adv-x="371" d="M143 557L198 508Q192 491 167 474T104 445T20 434V586Q55 586 88 597T145 630T178 681H306V0H143V557Z" />
<glyph unicode="2" horiz-adv-x="524" d="M480 499Q480 456 469 418T430 338T350 244L203 89L181 157H484V0H39V136L216 317Q260 362 282 390T313 439T321 479Q321 505 305 520T264 536Q235 536 204 516T136 448L22 536Q49 579 84 615T166 672T271 694Q338 694
384 668T455 597T480 499Z" />
<glyph unicode="3" horiz-adv-x="542" d="M274 -13Q189 -13 127 18T14 111L117 208Q147 176 180 161T257 145Q301 145 325 164T350 213Q350 237 336 252T295 276T233 284Q221 284 208 283T179 280V421Q195 419 206 418T227 416Q275 416 299 433T324 480Q324 507
306 521T254 536Q219 536 188 519T127 465L24 571Q79 637 137 665T270 694Q338 694 386 670T460 604T485 509Q485 425 425 374T255 323L256 389Q337 389 394 366T483 300T514 194Q514 137 486 90T404 15T274 -13Z" />
<glyph unicode="4" horiz-adv-x="596" d="M487 480V0H324V262L315 301L372 480H487ZM33 158V252L172 681H332L192 248L185 316H576V158H33Z" />
<glyph unicode="5" horiz-adv-x="542" d="M180 249L48 279V681H482V523H148L203 594V324L147 351Q176 400 218 423T319 447Q374 447 419 421T491 344T518 225Q518 150 487 97T400 15T271 -13Q195 -13 133 17T35 102L176 186Q194 162 217 150T268 138Q309 138 331
160T353 218Q353 251 330 272T270 294Q244 294 222 284T180 249Z" />
<glyph unicode="6" horiz-adv-x="568" d="M32 321Q32 442 67 525T167 651T321 694Q382 694 437 671T535 609L445 498Q417 519 388 531T325 543Q288 543 258 522T211 451T197 310H161Q188 371 236 402T348 433Q405 433 449 406T518 332T543 222Q543 155 514 102T431
18T299 -13Q219 -13 159 25T66 137T32 321ZM206 217Q206 178 232 158T296 137Q335 137 360 157T386 217Q386 255 361 276T296 297Q258 297 232 276T206 217Z" />
<glyph unicode="7" horiz-adv-x="506" d="M48 0L320 570L339 524H31V681H479V544L226 0H48Z" />
<glyph unicode="8" horiz-adv-x="556" d="M277 -13Q197 -13 142 13T60 86T32 193Q32 234 51 272T110 340T206 383L204 318Q150 333 115 362T63 428T45 500Q45 551 71 595T148 666T278 694Q357 694 408 667T484 595T510 500Q510 465 494 430T444 365T357 319L355
382Q412 368 449 339T505 271T524 193Q524 133 497 87T414 14T277 -13ZM277 138Q316 138 338 157T360 208Q360 242 338 262T277 282Q240 282 218 262T196 208Q196 176 218 157T277 138ZM277 430Q310 430 328 446T347 488Q347 512 329 527T277 543Q246 543 227 528T208
488Q208 462 227 446T277 430Z" />
<glyph unicode="9" horiz-adv-x="568" d="M539 360Q539 239 504 156T404 30T249 -13Q188 -13 133 10T36 72L126 183Q153 162 183 150T246 138Q283 138 313 158T360 230T373 370H409Q383 310 335 279T222 248Q166 248 122 275T53 349T28 458Q28 526 56 579T139
663T271 694Q351 694 411 656T505 544T539 360ZM364 464Q364 504 339 524T275 544Q236 544 211 524T185 464Q185 425 210 405T275 384Q313 384 338 404T364 464Z" />
<glyph unicode=":" horiz-adv-x="286" d="M142 -12Q113 -12 88 3T49 43T34 97Q34 127 48 151T88 191T142 206Q174 206 198 191T237 152T252 97Q252 68 238 43T199 3T142 -12ZM142 300Q113 300 88 315T49 355T34 409Q34 439 48 463T88 503T142 518Q174 518 198
503T237 464T252 409Q252 380 238 355T199 315T142 300Z" />
<glyph unicode=";" horiz-adv-x="292" d="M148 300Q118 300 94 315T54 355T39 409Q39 439 54 463T93 503T148 518Q179 518 203 503T243 464T258 409Q258 380 243 355T204 315T148 300ZM265 79Q265 17 229 -43T109 -164L29 -87Q66 -55 82 -25T99 33Q99 60 83 79T36
114Q45 152 64 172T107 200T153 208Q182 208 207 193T249 149T265 79Z" />
<glyph unicode="&lt;" horiz-adv-x="670" d="M494 21L102 260V353L494 593L568 470L198 241V371L568 143L494 21Z" />
<glyph unicode="=" horiz-adv-x="670" d="M93 332V486H578V332H93ZM93 109V262H578V109H93Z" />
<glyph unicode="&gt;" horiz-adv-x="670" d="M176 21L102 141L473 370V241L102 470L176 591L569 351V260L176 21Z" />
<glyph unicode="?" horiz-adv-x="545" d="M246 219L166 340L236 390Q277 418 300 436T332 471T342 507Q342 529 327 543T286 558Q263 558 236 546T163 493L124 462L26 580L51 605Q101 656 160 686T288 716Q356 716 405 690T480 618T507 518Q507 467 490 427T434
352T337 278L246 219ZM271 -7Q230 -7 201 21T172 92Q172 134 201 162T271 191Q312 191 341 163T371 92Q371 50 342 22T271 -7Z" />
<glyph unicode="@" horiz-adv-x="865" d="M368 139Q325 139 291 159T236 216T215 302Q215 371 244 426T322 514T428 546Q475 546 506 525T553 467T568 383Q568 345 555 303T517 223T454 162T368 139ZM455 -80Q361 -80 281 -51T143 33T53 163T21 329Q21 423 54
501T147 635T284 722T448 753Q534 753 606 724T732 646T815 533T845 401Q845 325 822 274T762 193T680 150T595 137Q538 137 500 171T461 272Q461 279 461 285T463 299L485 431L540 538H633L596 351Q594 338 592 323T589 295Q589 283 596 276T617 269Q636 269 654
281T685 319T697 387Q697 453 666 504T579 585T449 615Q368 615 305 579T207 479T171 331Q171 251 207 190T306 93T451 58Q516 58 561 78T654 137L738 35Q685 -21 611 -50T455 -80ZM400 267Q423 267 438 283T462 325T471 377Q471 397 464 411T438 425Q414 425 398
408T373 365T365 317Q365 295 373 281T400 267Z" />
<glyph unicode="A" horiz-adv-x="651" d="M164 265H468V115H164V265ZM8 0L249 681H420L644 0H481L305 570H364L170 0H8Z" />
<glyph unicode="B" horiz-adv-x="586" d="M51 0V681H302Q391 681 443 660T518 596T541 492Q541 444 521 408T466 351T385 330L387 355Q445 355 482 333T536 274T554 192Q554 96 496 48T320 0H51ZM213 602V86L157 155H316Q349 155 369 170T389 215Q389 245 370
260T318 275H157V412H304Q339 412 357 426T375 469Q375 497 357 511T304 526H160L213 602Z" />
<glyph unicode="C" horiz-adv-x="691" d="M365 -13Q258 -13 180 32T60 156T18 340Q18 418 43 482T114 594T224 667T365 693Q485 693 564 640T681 484L536 425Q507 481 466 508T365 536Q312 536 271 512T207 444T183 340Q183 280 206 236T271 169T365 145Q425 145
466 172T536 255L681 196Q643 94 564 41T365 -13Z" />
<glyph unicode="D" horiz-adv-x="655" d="M51 0V681H294Q402 681 479 641T597 524T638 341Q638 233 597 157T478 41T293 0H51ZM213 90L146 157H282Q340 157 382 175T448 235T472 341Q472 405 449 445T384 505T283 524H139L213 569V90Z" />
<glyph unicode="E" horiz-adv-x="529" d="M155 264V418H437V264H155ZM152 527L213 595V80L147 155H491V0H51V681H491V527H152Z" />
<glyph unicode="F" horiz-adv-x="511" d="M162 244V401H441V244H162ZM213 0H51V681H489V524H152L213 595V0Z" />
<glyph unicode="G" horiz-adv-x="710" d="M365 -13Q261 -13 183 31T62 154T18 333Q18 414 43 480T114 593T224 667T365 693Q482 693 559 643T677 497L531 435Q503 486 462 511T365 536Q312 536 271 512T207 442T183 333Q183 275 206 231T270 162T364 138Q413 138
449 155T508 205T535 283L587 234H351V377H683Q687 360 689 340T691 300Q691 228 665 170T592 71T488 9T365 -13Z" />
<glyph unicode="H" horiz-adv-x="671" d="M457 0V681H620V0H457ZM51 0V681H213V0H51ZM156 255V412H513V255H156Z" />
<glyph unicode="I" horiz-adv-x="265" d="M213 0H51V681H213V0Z" />
<glyph unicode="J" horiz-adv-x="557" d="M266 143Q303 143 324 166T345 229V681H508V232Q508 160 482 105T402 18T266 -14Q184 -14 130 16T50 100T23 227V265H186V228Q186 187 207 165T266 143Z" />
<glyph unicode="K" horiz-adv-x="639" d="M51 0V681H213V0H51ZM423 0L156 326V353L433 681H634L329 321L332 360L632 0H423Z" />
<glyph unicode="L" horiz-adv-x="493" d="M473 0H51V681H213V88L168 157H473V0Z" />
<glyph unicode="M" horiz-adv-x="859" d="M15 0L134 681H280L435 226H424L579 681H724L843 0H682L638 297Q630 355 623 413T610 529H655Q640 469 626 413T593 300L493 6H366L265 300Q246 357 232 413T203 529H249Q243 471 236 413T220 297L176 0H15Z" />
<glyph unicode="N" horiz-adv-x="698" d="M497 0L148 481L213 499V0H51V681H201L545 204L484 190V681H646V0H497Z" />
<glyph unicode="O" horiz-adv-x="734" d="M18 340Q18 418 43 482T114 594T225 668T367 694Q444 694 508 668T620 595T692 483T717 340Q717 263 692 198T620 86T509 13T367 -13Q290 -13 226 12T115 85T43 198T18 340ZM183 340Q183 280 206 237T272 170T367 147Q422
147 463 170T528 237T552 341Q552 401 528 444T463 510T367 534Q314 534 272 511T207 444T183 340Z" />
<glyph unicode="P" horiz-adv-x="577" d="M176 334H292Q343 334 370 358T397 429Q397 476 370 500T292 524H175L213 559V0H51V681H301Q379 681 438 651T530 565T563 429Q563 348 530 292T438 206T301 176H176V334Z" />
<glyph unicode="Q" horiz-adv-x="734" d="M526 -49L312 306H475L690 -49H526ZM18 340Q18 418 43 482T114 594T225 668T367 694Q444 694 508 668T620 595T692 483T717 340Q717 263 692 198T620 86T509 13T367 -13Q290 -13 226 12T115 85T43 198T18 340ZM183 340Q183
280 206 237T272 170T367 147Q422 147 463 170T528 237T552 341Q552 401 528 444T463 510T367 534Q314 534 272 511T207 444T183 340Z" />
<glyph unicode="R" horiz-adv-x="593" d="M51 0V681H303Q377 681 436 653T530 570T565 438Q565 360 530 306T436 224T303 196H176V352H294Q345 352 372 374T400 438Q400 480 373 502T294 524H175L213 559V0H51ZM395 0L255 275H432L572 0H395Z" />
<glyph unicode="S" horiz-adv-x="574" d="M295 -17Q234 -17 182 1T90 54T22 142L145 221Q173 178 214 155T304 131Q344 131 364 147T384 189Q384 205 375 218T341 242T270 264Q184 284 134 314T63 386T42 483Q42 543 72 591T160 668T296 697Q385 697 447 662T544
571L421 483Q396 516 359 530T285 544Q248 544 227 530T205 490Q205 466 227 451T316 420Q400 400 452 371T528 300T553 196Q553 134 522 86T433 11T295 -17Z" />
<glyph unicode="T" horiz-adv-x="580" d="M207 0V614H370V0H207ZM9 524V681H570V524H9Z" />
<glyph unicode="U" horiz-adv-x="660" d="M330 -13Q236 -13 174 21T80 123T49 292V681H211V282Q211 217 241 181T330 145Q390 145 419 181T449 282V681H612V292Q612 191 581 123T487 21T330 -13Z" />
<glyph unicode="V" horiz-adv-x="644" d="M233 0L5 681H172L358 111H288L476 681H638L410 0H233Z" />
<glyph unicode="W" horiz-adv-x="997" d="M625 0L451 581L421 681H576L754 91L674 94L825 681H989L801 0H625ZM196 0L8 681H172L323 94L243 91L421 681H576L547 581L372 0H196Z" />
<glyph unicode="X" horiz-adv-x="682" d="M206 681L361 442H323L478 681H672L430 320L429 366L675 0H474L315 244H365L208 0H6L251 366L253 320L12 681H206Z" />
<glyph unicode="Y" horiz-adv-x="627" d="M349 336H277L452 681H624L383 212L391 295V0H229V295L237 212L-4 681H175L349 336Z" />
<glyph unicode="Z" horiz-adv-x="585" d="M387 592L382 524H43V681H553V567L204 87L171 157H558V0H36V115L387 592Z" />
<glyph unicode="[" horiz-adv-x="340" d="M151 617V772H317V617H151ZM211 -168H49V772H211V-168ZM151 -168V-12H317V-168H151Z" />
<glyph unicode="\" horiz-adv-x="507" d="M381 -114L-11 690L126 753L518 -51L381 -114Z" />
<glyph unicode="]" horiz-adv-x="338" d="M187 617H21V772H187V617ZM127 -168V772H289V-168H127ZM187 -168H21V-12H187V-168Z" />
<glyph unicode="^" horiz-adv-x="670" d="M578 363L491 268L335 402L179 268L92 363L335 577L578 363Z" />
<glyph unicode="_" horiz-adv-x="558" d="M535 -114H22V19H535V-114Z" />
<glyph unicode="`" horiz-adv-x="568" d="M322 546L159 696L236 773L398 624L322 546Z" />
<glyph unicode="a" horiz-adv-x="513" d="M196 -13Q144 -13 104 7T42 65T19 151Q19 203 43 239T108 295T198 315Q271 315 317 282T377 183L311 198V309Q311 334 293 352T237 370Q210 370 175 363T101 337L55 452Q99 474 152 488T262 503Q331 503 378 478T450 408T474
300V0H338L307 97L377 119Q362 58 318 23T196 -13ZM251 97Q279 97 296 112T313 151Q313 174 296 189T251 204Q221 204 205 189T188 151Q188 127 204 112T251 97Z" />
<glyph unicode="b" horiz-adv-x="572" d="M327 -13Q264 -13 217 18T143 107T116 245Q116 330 142 387T215 474T326 503Q391 503 442 470T523 379T552 245Q552 171 524 112T445 20T327 -13ZM48 0V681H210V345H201V134H210L168 0H48ZM295 143Q334 143 360 171T387
245Q387 289 361 318T295 348Q256 348 229 319T202 245Q202 200 229 172T295 143Z" />
<glyph unicode="c" horiz-adv-x="511" d="M271 -13Q196 -13 140 20T51 112T19 246Q19 320 51 378T139 469T271 503Q356 503 417 462T504 352L359 286Q346 314 326 329T273 345Q234 345 208 318T181 246Q181 199 207 173T273 146Q306 146 326 161T359 203L504 139Q478
70 417 29T271 -13Z" />
<glyph unicode="d" horiz-adv-x="572" d="M244 -13Q179 -13 128 20T48 112T19 245Q19 320 48 378T129 470T246 503Q310 503 357 474T430 388T456 245Q456 165 429 107T355 18T244 -13ZM276 143Q316 143 343 171T370 245Q370 289 343 318T276 348Q237 348 211 319T184
245Q184 200 210 172T276 143ZM403 0L362 134H371V345H362V681H524V0H403Z" />
<glyph unicode="e" horiz-adv-x="532" d="M266 -9Q192 -9 137 22T50 110T19 245Q19 320 50 378T136 469T266 503Q343 503 398 468T483 376T513 247Q513 231 512 218T509 197H140V307H384L370 271Q370 318 345 348T268 378Q220 378 192 350T164 275V220Q164 169
194 142T278 114Q321 114 346 130T389 173L497 115Q466 58 406 25T266 -9Z" />
<glyph unicode="f" horiz-adv-x="347" d="M81 0V515Q81 571 102 611T163 674T256 697Q284 697 305 694T339 688V541Q331 543 321 545T294 548Q268 548 256 534T244 488V0H81ZM328 320H18V469H328V320Z" />
<glyph unicode="g" horiz-adv-x="574" d="M268 -201Q229 -201 188 -189T111 -150T53 -75L44 -57L159 0Q183 -37 207 -53T270 -69Q311 -69 337 -43T364 37V178H374V357H364L406 490H526V73Q526 -14 496 -75T409 -168T268 -201ZM246 25Q181 25 130 55T50 140T21
263Q21 332 49 386T128 472T243 503Q303 503 348 473T418 389T444 263Q444 188 420 135T351 53T246 25ZM279 167Q319 167 345 194T372 263Q372 306 346 333T279 361Q238 361 212 334T185 263Q185 222 211 195T279 167Z" />
<glyph unicode="h" horiz-adv-x="555" d="M48 0V681H210V0H48ZM352 0V282Q352 320 340 332T305 344Q288 344 269 338T232 319T195 289L141 395Q166 423 199 447T272 487T356 503Q405 503 436 486T484 441T507 376T514 301V0H352Z" />
<glyph unicode="i" horiz-adv-x="261" d="M212 0H49V490H212V0ZM37 645Q37 688 63 713T131 739Q174 739 199 714T224 645Q224 604 199 579T131 553Q89 553 63 578T37 645Z" />
<glyph unicode="j" horiz-adv-x="269" d="M54 -196Q27 -196 10 -192T-12 -185V-48Q-6 -49 0 -50T20 -52Q37 -52 47 -38T57 0V490H219V-36Q219 -78 203 -114T150 -173T54 -196ZM44 645Q44 688 70 713T138 739Q181 739 206 714T231 645Q231 604 206 579T138 553Q96
553 70 578T44 645Z" />
<glyph unicode="k" horiz-adv-x="530" d="M158 246V266L355 490H534L318 242L316 283L540 0H352L158 246ZM48 681H209V0H48V681Z" />
<glyph unicode="l" horiz-adv-x="278" d="M201 -5Q161 -5 126 10T70 61T48 154V681H209V211Q209 173 221 163T256 152V-1Q247 -3 231 -4T201 -5Z" />
<glyph unicode="m" horiz-adv-x="837" d="M48 0V490H168L200 389L141 395Q166 423 198 447T270 487T352 503Q400 503 429 486T475 441T497 376T504 301V0H342V282Q342 320 330 332T299 344Q272 344 247 330T195 289L160 370H210V0H48ZM634 0V282Q634 320 623 332T592
344Q566 344 540 330T488 289L435 395Q460 423 492 447T564 487T645 503Q693 503 723 486T769 441T791 376T797 301V0H634Z" />
<glyph unicode="n" horiz-adv-x="554" d="M356 503Q405 503 436 486T484 441T507 376T514 301V0H352V282Q352 320 340 332T305 344Q288 344 269 338T232 319T195 289L160 370H210V0H48V490H168L200 389L141 395Q166 423 199 447T272 487T356 503Z" />
<glyph unicode="o" horiz-adv-x="560" d="M279 -13Q202 -13 144 20T53 111T20 244Q20 320 53 378T144 469T279 503Q357 503 415 470T506 378T539 244Q539 169 507 111T416 20T279 -13ZM279 145Q321 145 348 172T375 245Q375 290 348 317T279 345Q238 345 211 318T184
245Q184 201 211 173T279 145Z" />
<glyph unicode="p" horiz-adv-x="572" d="M326 -13Q262 -13 215 16T142 102T116 245Q116 325 142 382T216 471T327 503Q394 503 444 470T523 378T552 245Q552 170 523 112T443 20T326 -13ZM48 -190V490H168L210 356H201V144H210V-190H48ZM295 143Q334 143 360
171T387 245Q387 289 361 318T295 348Q256 348 229 319T202 245Q202 200 229 172T295 143Z" />
<glyph unicode="q" horiz-adv-x="572" d="M246 -13Q181 -13 130 20T49 111T19 245Q19 320 48 378T128 469T244 503Q307 503 354 472T429 383T456 245Q456 159 430 102T357 16T246 -13ZM276 143Q316 143 343 171T370 245Q370 289 343 318T276 348Q237 348 211 319T184
245Q184 200 210 172T276 143ZM362 -190V144H371V356H362L403 490H524V-190H362Z" />
<glyph unicode="r" horiz-adv-x="375" d="M168 490L210 353V0H48V490H168ZM172 258L146 269V397L156 408Q168 426 191 448T245 486T309 503Q325 503 338 501T358 493V345H325Q263 345 225 325T172 258Z" />
<glyph unicode="s" horiz-adv-x="457" d="M235 -16Q174 -16 122 6T23 85L109 174Q144 140 177 125T247 110Q265 110 277 117T289 136Q289 146 282 153T252 167T186 185Q107 205 70 242T33 341Q33 386 57 423T126 483T232 506Q305 506 356 479T441 414L346 329Q322
350 290 363T219 376Q199 376 186 370T173 351Q173 340 190 332T263 310Q354 288 395 250T436 146Q436 98 411 62T340 5T235 -16Z" />
<glyph unicode="t" horiz-adv-x="410" d="M280 -8Q193 -8 144 33T94 169V484L92 490L126 609H256V213Q256 177 272 162T316 147Q331 147 344 150T367 156V4Q348 -2 327 -5T280 -8ZM18 340V490H367V340H18Z" />
<glyph unicode="u" horiz-adv-x="555" d="M217 -13Q163 -13 129 3T75 46T49 110T41 189V490H203V207Q203 170 217 158T255 145Q273 145 290 151T325 169T360 200L394 120H344V490H507V0H387L354 101L413 94Q389 67 358 43T292 3T217 -13Z" />
<glyph unicode="v" horiz-adv-x="526" d="M519 490L347 0H190L7 490H172L292 120H243L359 490H519Z" />
<glyph unicode="w" horiz-adv-x="772" d="M151 0L6 490H164L271 103H203L328 490H451L577 103H508L615 490H767L621 0H474L362 320H417L305 0H151Z" />
<glyph unicode="x" horiz-adv-x="542" d="M356 0L252 166H290L185 0H7L194 268L197 221L10 490H189L292 324H249L352 490H531L344 221L348 268L535 0H356Z" />
<glyph unicode="y" horiz-adv-x="566" d="M204 28L7 490H170L361 41L204 28ZM108 -190L397 490H560L271 -190H108Z" />
<glyph unicode="z" horiz-adv-x="488" d="M452 143V0H36V125L318 423L381 347H42V490H448V365L165 66L125 143H452Z" />
<glyph unicode="{" horiz-adv-x="334" d="M132 371Q174 371 208 352T262 302T282 230Q282 204 271 179T246 130T220 82T209 36Q209 19 222 9T262 -2H305L307 -151Q286 -156 270 -157T239 -159Q182 -159 144 -146T84 -111T52 -63T42 -8Q42 25 56 54T88 111T121
161T135 208Q135 223 126 233T98 252L44 275V387L98 409Q117 417 126 428T135 454Q135 476 121 500T89 550T56 607T42 670Q42 698 51 724T83 772T144 807T239 820Q253 820 269 819T307 813L305 663H262Q235 663 222 653T209 625Q209 603 220 580T245 532T271 483T282
431Q282 392 262 360T208 309T132 290V371Z" />
<glyph unicode="|" horiz-adv-x="258" d="M203 -128H55V828H203V-128Z" />
<glyph unicode="}" horiz-adv-x="334" d="M202 371V290Q161 290 127 309T72 360T52 431Q52 458 63 483T88 532T114 579T125 625Q125 643 112 653T71 663H29L26 813Q49 817 65 818T95 820Q152 820 190 807T250 772T282 724T292 670Q292 637 278 607T246 551T213
500T199 454Q199 439 208 428T237 409L291 387V275L237 252Q217 244 208 234T199 208Q199 185 213 162T245 111T278 55T292 -8Q292 -36 283 -62T251 -111T190 -146T95 -159Q81 -159 65 -158T26 -151L29 -2H71Q99 -2 112 8T125 36Q125 58 114 81T89 129T63 179T52
230Q52 270 72 301T126 352T202 371Z" />
<glyph unicode="~" horiz-adv-x="670" d="M172 201L50 264Q73 308 98 341T156 393T236 411Q269 411 292 402T337 380T377 358T420 348Q446 348 464 367T499 422L620 360Q589 293 548 253T434 212Q403 212 379 221T334 243T294 264T250 274Q226 274 209 256T172 201Z" />
<glyph unicode="&#xa0;" horiz-adv-x="260" />
<glyph unicode="&#xa1;" horiz-adv-x="284" d="M231 -191H54L63 134L76 298H209L222 133L231 -191ZM143 531Q184 531 213 502T242 431Q242 390 213 361T143 332Q102 332 73 361T43 431Q43 473 72 502T143 531Z" />
<glyph unicode="&#xa2;" horiz-adv-x="517" d="M190 518V688H341V518H190ZM190 -9V164H341V-9H190ZM270 79Q195 79 139 112T52 204T20 337Q20 411 52 469T140 561T270 595Q357 595 418 556T507 444L364 378Q355 397 344 410T316 432T274 440Q233 440 208 412T182
338Q182 291 207 264T274 236Q311 236 330 252T364 296L507 231Q479 160 418 120T270 79Z" />
<glyph unicode="&#xa3;" horiz-adv-x="550" d="M73 478Q73 527 99 568T172 636T286 662Q359 662 415 637T512 555L401 452Q377 482 348 493T289 504Q265 504 248 490T230 450Q230 425 240 402T263 354T286 302T297 241Q297 199 278 158T232 86T179 39L154 157H520V0H65L35
102L79 129Q113 148 130 181T147 248Q147 277 136 301T111 349T85 405T73 478ZM420 238H45V376H420V238Z" />
<glyph unicode="&#xa4;" horiz-adv-x="573" d="M286 99Q230 99 182 127T104 203T75 311Q75 371 104 419T181 495T286 523Q347 523 394 495T470 419T498 311Q498 251 470 203T395 127T286 99ZM124 49L20 153L147 281L252 177L124 49ZM147 340L20 468L124 572L252
446L147 340ZM286 247Q314 247 332 265T350 311Q350 338 332 356T286 375Q259 375 241 357T223 311Q223 284 241 266T286 247ZM449 49L322 177L426 281L553 153L449 49ZM426 340L322 446L449 572L553 468L426 340Z" />
<glyph unicode="&#xa5;" horiz-adv-x="589" d="M210 0V73H51V203H210V241H51V372H147L12 648H169L292 378L420 648H577L438 372H532V241H372V203H532V73H372V0H210Z" />
<glyph unicode="&#xa6;" horiz-adv-x="258" d="M203 402H55V828H203V402ZM203 -128H55V298H203V-128Z" />
<glyph unicode="&#xa7;" horiz-adv-x="561" d="M288 475L260 375Q233 375 215 359T197 322Q197 306 206 295T240 275T310 254Q423 227 476 180T530 47Q530 -11 499 -57T413 -128T285 -154Q197 -154 132 -119T30 -7L152 72Q187 22 222 8T294 -7Q321 -7 341 3T361
33Q361 48 350 60T310 84T227 109Q132 130 90 175T48 297Q48 346 76 386T159 451T288 475ZM287 145L320 244Q343 245 359 258T376 292Q376 309 364 322T321 348T229 374Q135 396 92 446T49 573Q49 631 78 677T161 750T290 778Q375 778 434 745T527 658L405 570Q382
601 348 613T278 626Q250 626 231 615T212 582Q212 562 232 548T312 520Q388 502 436 477T508 413T531 318Q531 270 500 231T415 168T287 145Z" />
<glyph unicode="&#xa8;" horiz-adv-x="568" d="M96 640Q96 676 121 701T181 726Q216 726 241 701T266 640Q266 605 242 580T181 555Q145 555 121 580T96 640ZM301 640Q301 676 325 701T385 726Q421 726 446 701T471 640Q471 605 446 580T385 555Q349 555 325 580T301
640Z" />
<glyph unicode="&#xa9;" horiz-adv-x="667" d="M333 119Q268 119 212 143T113 211T46 310T22 430Q22 495 46 552T113 652T212 720T333 745Q396 745 453 720T553 652T620 552T645 430Q645 366 621 311T554 212T454 144T333 119ZM333 221Q390 221 436 249T510 324T538
430Q538 490 511 538T437 613T333 641Q276 641 229 613T155 538T127 430Q127 371 154 324T228 249T333 221ZM337 272Q265 272 220 316T175 431Q175 502 219 546T337 590Q387 590 424 568T484 488L395 450Q385 473 371 483T337 493Q310 493 296 477T281 431Q281
401 295 386T337 370Q356 370 370 379T395 413L484 375Q462 317 425 295T337 272Z" />
<glyph unicode="&#xaa;" horiz-adv-x="372" d="M157 308Q117 308 85 324T35 367T17 429Q17 469 36 495T86 536T153 551Q191 551 215 536T253 502T272 467T278 451L229 465V546Q229 566 216 578T174 591Q155 591 131 586T78 566L44 653Q77 670 113 680T189 691Q270
691 311 650T352 536V318H248L226 391L268 415Q268 384 255 360T217 322T157 308ZM174 391Q197 391 211 402T226 429Q226 445 212 456T174 468Q154 468 140 457T125 429Q125 413 139 402T174 391Z" />
<glyph unicode="&#xab;" horiz-adv-x="621" d="M177 96L28 304L178 515H348L198 304L347 96H177ZM429 96L280 304L430 515H600L450 304L599 96H429Z" />
<glyph unicode="&#xac;" horiz-adv-x="670" d="M587 103H426V417H587V103ZM587 257H84V417H587V257Z" />
<glyph unicode="&#xae;" horiz-adv-x="666" d="M289 363V448H336Q376 448 376 478Q376 509 336 509H288L312 529V286H220V594H336Q392 594 430 566T469 478Q469 420 431 392T336 363H289ZM471 286H365L304 408H410L471 286ZM333 745Q268 745 212 720T114 652T47
552T22 430Q22 366 46 311T112 212T211 144T333 119Q398 119 454 143T553 211T621 310T645 430Q645 495 621 552T553 652T453 720T333 745ZM333 221Q275 221 229 248T155 323T127 430Q127 490 154 537T229 613T333 641Q390 641 436 614T510 538T538 430Q538 371
511 324T437 249T333 221Z" />
<glyph unicode="&#xaf;" horiz-adv-x="568" d="M437 578H129V712H437V578Z" />
<glyph unicode="&#xb0;" horiz-adv-x="387" d="M193 333Q146 333 107 355T44 416T20 501Q20 547 43 585T106 646T193 669Q241 669 280 647T342 586T366 501Q366 454 343 416T281 356T193 333ZM193 440Q219 440 236 457T254 501Q254 525 237 542T193 560Q168 560
150 543T132 501Q132 475 150 458T193 440Z" />
<glyph unicode="&#xb1;" horiz-adv-x="670" d="M89 341V500H582V341H89ZM89 -1V157H582V-1H89ZM250 208V643H409V208H250Z" />
<glyph unicode="&#xb2;" horiz-adv-x="363" d="M329 655Q329 613 305 579T242 506L161 424L144 464H332V353H35V444L147 555Q181 590 196 611T212 645Q212 657 204 663T183 669Q167 669 148 655T105 617L24 678Q50 718 89 748T188 779Q232 779 263 761T312 716T329 655Z" />
<glyph unicode="&#xb3;" horiz-adv-x="360" d="M177 345Q130 345 91 365T21 428L94 496Q113 480 125 471T149 458T177 455Q192 455 207 463T222 487Q222 500 209 507T164 515Q157 515 145 515T116 513V609Q135 608 143 608T157 607Q180 607 194 616T209 643Q209
656 200 662T173 669Q152 669 132 659T88 623L15 697Q58 744 94 761T175 779Q245 779 284 747T324 666Q324 611 285 579T168 546L174 603Q226 603 262 587T319 544T339 483Q339 444 318 413T261 363T177 345Z" />
<glyph unicode="&#xb4;" horiz-adv-x="568" d="M245 546L169 624L331 773L408 696L245 546Z" />
<glyph unicode="&#xb5;" horiz-adv-x="555" d="M41 490H203V207Q203 170 217 158T255 145Q273 145 290 151T325 169T360 200L394 120H344V490H507V0H387L354 101L413 94Q389 67 358 43T292 3T217 -13Q163 -13 129 3T75 46T49 110T41 189V490ZM41 211L203 230V-190H41V211Z"
/>
<glyph unicode="&#xb6;" horiz-adv-x="711" d="M354 626V169H292Q221 169 163 204T70 301T35 441Q35 532 73 594T175 689T315 722H681V623L590 572H284L354 626ZM449 107V636H612V131Q612 52 584 -9T499 -104T359 -138Q317 -138 272 -126T188 -81T119 10L114 20L239
93Q267 42 294 25T354 7Q400 7 424 33T449 107Z" />
<glyph unicode="&#xb7;" horiz-adv-x="286" d="M143 178Q113 178 88 193T49 233T34 287Q34 317 48 341T88 381T142 396Q174 396 198 381T237 342T252 287Q252 258 238 233T199 193T143 178Z" />
<glyph unicode="&#xb8;" horiz-adv-x="568" d="M270 -222Q241 -222 215 -215T163 -195L192 -121Q211 -129 230 -134T268 -140Q286 -140 294 -134T303 -119Q303 -110 295 -105T267 -99H203L225 0H315L299 -70L270 -23Q327 -23 360 -48T393 -119Q393 -166 360 -194T270
-222Z" />
<glyph unicode="&#xb9;" horiz-adv-x="252" d="M104 687L137 654Q129 635 94 620T14 604V711Q38 711 62 718T104 739T126 771H219V353H104V687Z" />
<glyph unicode="&#xba;" horiz-adv-x="416" d="M207 307Q150 307 107 332T39 400T14 499Q14 554 38 597T106 666T208 691Q265 691 309 666T377 598T402 499Q402 443 378 400T309 332T207 307ZM208 427Q237 427 256 447T275 499Q275 531 256 550T208 570Q178 570
160 551T141 499Q141 468 159 448T208 427Z" />
<glyph unicode="&#xbb;" horiz-adv-x="621" d="M22 96L170 304L20 515H191L340 304L192 96H22ZM274 96L422 304L272 515H443L592 304L444 96H274Z" />
<glyph unicode="&#xbc;" horiz-adv-x="918" d="M104 853L137 820Q129 801 94 786T14 770V877Q38 877 62 884T104 905T126 937H219V519H104V853ZM235 -57L129 -4L556 711L663 657L235 -57ZM852 290V0H738V147L732 174L770 290H852ZM536 73V142L631 418H744L647
141L644 184H908V73H536Z" />
<glyph unicode="&#xbd;" horiz-adv-x="895" d="M104 853L137 820Q129 801 94 786T14 770V877Q38 877 62 884T104 905T126 937H219V519H104V853ZM235 -57L129 -4L556 711L663 657L235 -57ZM861 302Q861 260 837 226T774 153L693 71L676 111H864V0H567V91L679 202Q713
237 728 258T744 292Q744 304 736 310T715 316Q699 316 680 302T637 264L556 325Q582 365 621 395T720 426Q764 426 795 408T844 363T861 302Z" />
<glyph unicode="&#xbe;" horiz-adv-x="1007" d="M177 511Q130 511 91 531T21 594L94 662Q113 646 125 637T149 624T177 621Q192 621 207 629T222 653Q222 666 209 673T164 681Q157 681 145 681T116 679V775Q135 774 143 774T157 773Q180 773 194 782T209 809Q209
822 200 828T173 835Q152 835 132 825T88 789L15 863Q58 910 94 927T175 945Q245 945 284 913T324 832Q324 777 285 745T168 712L174 769Q226 769 262 753T319 710T339 649Q339 610 318 579T261 529T177 511ZM324 -57L218 -4L645 711L752 657L324 -57ZM941 290V0H827V147L821
174L859 290H941ZM625 73V142L720 418H833L736 141L733 184H997V73H625Z" />
<glyph unicode="&#xbf;" horiz-adv-x="521" d="M299 304L379 183L308 134Q269 106 246 87T213 52T203 15Q203 -6 218 -20T258 -35Q274 -35 291 -30T330 -10T382 30L420 62L519 -56L494 -81Q445 -131 385 -162T256 -193Q188 -193 140 -166T65 -94T38 5Q38 57 55
97T110 172T207 246L299 304ZM273 531Q315 531 344 502T373 431Q373 389 344 360T273 331Q233 331 203 360T173 431Q173 473 202 502T273 531Z" />
<glyph unicode="&#xc0;" horiz-adv-x="651" d="M164 265H468V115H164V265ZM8 0L249 681H420L644 0H481L305 570H364L170 0H8ZM338 737L175 887L252 964L414 815L338 737Z" />
<glyph unicode="&#xc1;" horiz-adv-x="651" d="M164 265H468V115H164V265ZM8 0L249 681H420L644 0H481L305 570H364L170 0H8ZM331 737L255 815L417 964L494 887L331 737Z" />
<glyph unicode="&#xc2;" horiz-adv-x="651" d="M164 265H468V115H164V265ZM8 0L249 681H420L644 0H481L305 570H364L170 0H8ZM253 741L175 814L335 955L494 814L417 741L303 843H367L253 741Z" />
<glyph unicode="&#xc3;" horiz-adv-x="651" d="M164 265H468V115H164V265ZM8 0L249 681H420L644 0H481L305 570H364L170 0H8ZM400 759Q367 759 327 782Q313 791 304 794T285 797Q257 797 235 761L139 809Q161 862 192 890T268 918Q286 918 303 912T341 895Q352
888 362 884T383 880Q398 880 410 888T435 918L531 870Q507 812 474 786T400 759Z" />
<glyph unicode="&#xc4;" horiz-adv-x="651" d="M164 265H468V115H164V265ZM8 0L249 681H420L644 0H481L305 570H364L170 0H8ZM148 831Q148 867 173 892T233 917Q268 917 293 892T318 831Q318 796 294 771T233 746Q197 746 173 771T148 831ZM353 831Q353 867 377
892T437 917Q473 917 498 892T523 831Q523 796 498 771T437 746Q401 746 377 771T353 831Z" />
<glyph unicode="&#xc5;" horiz-adv-x="651" d="M164 265H468V115H164V265ZM8 0L249 681H420L644 0H481L305 570H364L170 0H8ZM335 751Q301 751 274 766T230 809T213 869Q213 904 229 931T273 973T335 989Q369 989 396 974T439 931T456 869Q456 836 440 809T396
767T335 751ZM335 838Q349 838 358 847T367 870Q367 885 358 893T335 902Q321 902 312 894T303 870Q303 856 312 847T335 838Z" />
<glyph unicode="&#xc6;" horiz-adv-x="864" d="M427 0L360 681H806V524H461L528 613L576 30L513 157H827V0H427ZM142 123V273H511V123H142ZM8 0L270 681H436L170 0H8ZM498 261V418H777V261H498Z" />
<glyph unicode="&#xc7;" horiz-adv-x="691" d="M365 -13Q258 -13 180 32T60 156T18 340Q18 418 43 482T114 594T224 667T365 693Q485 693 564 640T681 484L536 425Q507 481 466 508T365 536Q312 536 271 512T207 444T183 340Q183 280 206 236T271 169T365 145Q425
145 466 172T536 255L681 196Q643 94 564 41T365 -13ZM344 -222Q315 -222 289 -215T237 -195L266 -121Q285 -129 304 -134T342 -140Q360 -140 368 -134T377 -119Q377 -110 369 -105T341 -99H277L299 0H389L373 -70L344 -23Q401 -23 434 -48T467 -119Q467 -166 434
-194T344 -222Z" />
<glyph unicode="&#xc8;" horiz-adv-x="529" d="M155 264V418H437V264H155ZM152 527L213 595V80L147 155H491V0H51V681H491V527H152ZM274 737L111 887L188 964L350 815L274 737Z" />
<glyph unicode="&#xc9;" horiz-adv-x="529" d="M155 264V418H437V264H155ZM152 527L213 595V80L147 155H491V0H51V681H491V527H152ZM267 737L191 815L353 964L430 887L267 737Z" />
<glyph unicode="&#xca;" horiz-adv-x="529" d="M155 264V418H437V264H155ZM152 527L213 595V80L147 155H491V0H51V681H491V527H152ZM189 741L111 814L271 955L430 814L353 741L239 843H303L189 741Z" />
<glyph unicode="&#xcb;" horiz-adv-x="529" d="M155 264V418H437V264H155ZM152 527L213 595V80L147 155H491V0H51V681H491V527H152ZM84 831Q84 867 109 892T169 917Q204 917 229 892T254 831Q254 796 230 771T169 746Q133 746 109 771T84 831ZM289 831Q289 867
313 892T373 917Q409 917 434 892T459 831Q459 796 434 771T373 746Q337 746 313 771T289 831Z" />
<glyph unicode="&#xcc;" horiz-adv-x="265" d="M213 0H51V681H213V0ZM136 737L-27 887L50 964L212 815L136 737Z" />
<glyph unicode="&#xcd;" horiz-adv-x="265" d="M213 0H51V681H213V0ZM129 737L53 815L215 964L292 887L129 737Z" />
<glyph unicode="&#xce;" horiz-adv-x="265" d="M213 0H51V681H213V0ZM69 741L-11 813L133 960L276 813L196 741L111 838H154L69 741Z" />
<glyph unicode="&#xcf;" horiz-adv-x="265" d="M213 0H51V681H213V0ZM226 746Q189 746 166 770T142 831Q142 869 165 893T226 917Q265 917 288 893T312 831Q312 794 289 770T226 746ZM40 746Q2 746 -21 770T-45 831Q-45 869 -22 893T40 917Q78 917 101 893T125
831Q125 794 102 770T40 746Z" />
<glyph unicode="&#xd0;" horiz-adv-x="694" d="M80 0V681H323Q431 681 507 641T625 524T666 341Q666 233 625 157T507 41T322 0H80ZM12 266V414H354V266H12ZM242 90L174 157H310Q369 157 411 175T476 235T499 341Q499 405 477 445T412 505T311 524H167L242 569V90Z" />
<glyph unicode="&#xd1;" horiz-adv-x="698" d="M497 0L148 481L213 499V0H51V681H201L545 204L484 190V681H646V0H497ZM418 759Q385 759 345 782Q331 791 322 794T303 797Q275 797 253 761L157 809Q179 862 210 890T286 918Q304 918 321 912T359 895Q370 888 380
884T401 880Q416 880 428 888T453 918L549 870Q525 812 492 786T418 759Z" />
<glyph unicode="&#xd2;" horiz-adv-x="734" d="M18 340Q18 418 43 482T114 594T225 668T367 694Q444 694 508 668T620 595T692 483T717 340Q717 263 692 198T620 86T509 13T367 -13Q290 -13 226 12T115 85T43 198T18 340ZM183 340Q183 280 206 237T272 170T367
147Q422 147 463 170T528 237T552 341Q552 401 528 444T463 510T367 534Q314 534 272 511T207 444T183 340ZM370 737L207 887L284 964L446 815L370 737Z" />
<glyph unicode="&#xd3;" horiz-adv-x="734" d="M18 340Q18 418 43 482T114 594T225 668T367 694Q444 694 508 668T620 595T692 483T717 340Q717 263 692 198T620 86T509 13T367 -13Q290 -13 226 12T115 85T43 198T18 340ZM183 340Q183 280 206 237T272 170T367
147Q422 147 463 170T528 237T552 341Q552 401 528 444T463 510T367 534Q314 534 272 511T207 444T183 340ZM363 737L287 815L449 964L526 887L363 737Z" />
<glyph unicode="&#xd4;" horiz-adv-x="734" d="M18 340Q18 418 43 482T114 594T225 668T367 694Q444 694 508 668T620 595T692 483T717 340Q717 263 692 198T620 86T509 13T367 -13Q290 -13 226 12T115 85T43 198T18 340ZM183 340Q183 280 206 237T272 170T367
147Q422 147 463 170T528 237T552 341Q552 401 528 444T463 510T367 534Q314 534 272 511T207 444T183 340ZM284 741L206 814L366 955L525 814L448 741L334 843H398L284 741Z" />
<glyph unicode="&#xd5;" horiz-adv-x="734" d="M18 340Q18 418 43 482T114 594T225 668T367 694Q444 694 508 668T620 595T692 483T717 340Q717 263 692 198T620 86T509 13T367 -13Q290 -13 226 12T115 85T43 198T18 340ZM183 340Q183 280 206 237T272 170T367
147Q422 147 463 170T528 237T552 341Q552 401 528 444T463 510T367 534Q314 534 272 511T207 444T183 340ZM432 759Q399 759 359 782Q345 791 336 794T317 797Q289 797 267 761L171 809Q193 862 224 890T300 918Q318 918 335 912T373 895Q384 888 394 884T415
880Q430 880 442 888T467 918L563 870Q539 812 506 786T432 759Z" />
<glyph unicode="&#xd6;" horiz-adv-x="734" d="M18 340Q18 418 43 482T114 594T225 668T367 694Q444 694 508 668T620 595T692 483T717 340Q717 263 692 198T620 86T509 13T367 -13Q290 -13 226 12T115 85T43 198T18 340ZM183 340Q183 280 206 237T272 170T367
147Q422 147 463 170T528 237T552 341Q552 401 528 444T463 510T367 534Q314 534 272 511T207 444T183 340ZM180 831Q180 867 205 892T265 917Q300 917 325 892T350 831Q350 796 326 771T265 746Q229 746 205 771T180 831ZM385 831Q385 867 409 892T469 917Q505
917 530 892T555 831Q555 796 530 771T469 746Q433 746 409 771T385 831Z" />
<glyph unicode="&#xd7;" horiz-adv-x="670" d="M583 204L473 93L88 478L199 588L583 204ZM88 204L473 588L583 478L199 93L88 204Z" />
<glyph unicode="&#xd8;" horiz-adv-x="734" d="M687 627L172 -35L50 54L565 716L687 627ZM18 340Q18 418 43 482T114 594T225 668T367 694Q444 694 508 668T620 595T692 483T717 340Q717 263 692 198T620 86T509 13T367 -13Q290 -13 226 12T115 85T43 198T18 340ZM183
340Q183 280 206 237T272 170T367 147Q422 147 463 170T528 237T552 341Q552 401 528 444T463 510T367 534Q314 534 272 511T207 444T183 340Z" />
<glyph unicode="&#xd9;" horiz-adv-x="660" d="M330 -13Q236 -13 174 21T80 123T49 292V681H211V282Q211 217 241 181T330 145Q390 145 419 181T449 282V681H612V292Q612 191 581 123T487 21T330 -13ZM334 737L171 887L248 964L410 815L334 737Z" />
<glyph unicode="&#xda;" horiz-adv-x="660" d="M330 -13Q236 -13 174 21T80 123T49 292V681H211V282Q211 217 241 181T330 145Q390 145 419 181T449 282V681H612V292Q612 191 581 123T487 21T330 -13ZM327 737L251 815L413 964L490 887L327 737Z" />
<glyph unicode="&#xdb;" horiz-adv-x="660" d="M330 -13Q236 -13 174 21T80 123T49 292V681H211V282Q211 217 241 181T330 145Q390 145 419 181T449 282V681H612V292Q612 191 581 123T487 21T330 -13ZM249 741L171 814L331 955L490 814L413 741L299 843H363L249 741Z" />
<glyph unicode="&#xdc;" horiz-adv-x="660" d="M330 -13Q236 -13 174 21T80 123T49 292V681H211V282Q211 217 241 181T330 145Q390 145 419 181T449 282V681H612V292Q612 191 581 123T487 21T330 -13ZM144 831Q144 867 169 892T229 917Q264 917 289 892T314 831Q314
796 290 771T229 746Q193 746 169 771T144 831ZM349 831Q349 867 373 892T433 917Q469 917 494 892T519 831Q519 796 494 771T433 746Q397 746 373 771T349 831Z" />
<glyph unicode="&#xdd;" horiz-adv-x="627" d="M349 336H277L452 681H624L383 212L391 295V0H229V295L237 212L-4 681H175L349 336ZM306 737L230 815L392 964L469 887L306 737Z" />
<glyph unicode="&#xde;" horiz-adv-x="577" d="M51 0V681H213V0H51ZM176 89V245H292Q343 245 370 269T397 341Q397 388 370 411T292 435H175V592H301Q379 592 438 562T530 477T563 341Q563 261 530 205T438 119T301 89H176Z" />
<glyph unicode="&#xdf;" horiz-adv-x="612" d="M418 -17Q364 -17 315 4T225 80L308 171Q328 136 346 122T388 108Q410 108 423 119T436 150Q436 163 424 181T368 230Q326 259 309 286T291 340Q291 359 299 378T330 422Q348 442 357 457T366 488Q366 514 348 529T292
545Q252 545 228 522T204 454V0H42V454Q42 528 72 582T159 667T299 697Q367 697 419 675T502 615T532 531Q532 498 519 473T481 419Q465 401 457 389T449 364Q449 350 458 339T499 305Q554 263 576 227T599 143Q599 72 550 28T418 -17Z" />
<glyph unicode="&#xe0;" horiz-adv-x="513" d="M196 -13Q144 -13 104 7T42 65T19 151Q19 203 43 239T108 295T198 315Q271 315 317 282T377 183L311 198V309Q311 334 293 352T237 370Q210 370 175 363T101 337L55 452Q99 474 152 488T262 503Q331 503 378 478T450
408T474 300V0H338L307 97L377 119Q362 58 318 23T196 -13ZM251 97Q279 97 296 112T313 151Q313 174 296 189T251 204Q221 204 205 189T188 151Q188 127 204 112T251 97ZM523 546L360 696L437 773L599 624L523 546Z" />
<glyph unicode="&#xe1;" horiz-adv-x="513" d="M196 -13Q144 -13 104 7T42 65T19 151Q19 203 43 239T108 295T198 315Q271 315 317 282T377 183L311 198V309Q311 334 293 352T237 370Q210 370 175 363T101 337L55 452Q99 474 152 488T262 503Q331 503 378 478T450
408T474 300V0H338L307 97L377 119Q362 58 318 23T196 -13ZM251 97Q279 97 296 112T313 151Q313 174 296 189T251 204Q221 204 205 189T188 151Q188 127 204 112T251 97ZM260 546L184 624L346 773L423 696L260 546Z" />
<glyph unicode="&#xe2;" horiz-adv-x="513" d="M196 -13Q144 -13 104 7T42 65T19 151Q19 203 43 239T108 295T198 315Q271 315 317 282T377 183L311 198V309Q311 334 293 352T237 370Q210 370 175 363T101 337L55 452Q99 474 152 488T262 503Q331 503 378 478T450
408T474 300V0H338L307 97L377 119Q362 58 318 23T196 -13ZM251 97Q279 97 296 112T313 151Q313 174 296 189T251 204Q221 204 205 189T188 151Q188 127 204 112T251 97ZM438 550L360 623L520 764L679 623L602 550L488 652H552L438 550Z" />
<glyph unicode="&#xe3;" horiz-adv-x="513" d="M196 -13Q144 -13 104 7T42 65T19 151Q19 203 43 239T108 295T198 315Q271 315 317 282T377 183L311 198V309Q311 334 293 352T237 370Q210 370 175 363T101 337L55 452Q99 474 152 488T262 503Q331 503 378 478T450
408T474 300V0H338L307 97L377 119Q362 58 318 23T196 -13ZM251 97Q279 97 296 112T313 151Q313 174 296 189T251 204Q221 204 205 189T188 151Q188 127 204 112T251 97ZM586 568Q553 568 513 591Q499 600 490 603T471 606Q443 606 421 570L325 618Q347 671 378
699T454 727Q472 727 489 721T527 704Q538 697 548 693T569 689Q584 689 596 697T621 727L717 679Q693 621 660 595T586 568Z" />
<glyph unicode="&#xe4;" horiz-adv-x="513" d="M196 -13Q144 -13 104 7T42 65T19 151Q19 203 43 239T108 295T198 315Q271 315 317 282T377 183L311 198V309Q311 334 293 352T237 370Q210 370 175 363T101 337L55 452Q99 474 152 488T262 503Q331 503 378 478T450
408T474 300V0H338L307 97L377 119Q362 58 318 23T196 -13ZM251 97Q279 97 296 112T313 151Q313 174 296 189T251 204Q221 204 205 189T188 151Q188 127 204 112T251 97ZM333 640Q333 676 358 701T418 726Q453 726 478 701T503 640Q503 605 479 580T418 555Q382
555 358 580T333 640ZM538 640Q538 676 562 701T622 726Q658 726 683 701T708 640Q708 605 683 580T622 555Q586 555 562 580T538 640Z" />
<glyph unicode="&#xe5;" horiz-adv-x="513" d="M196 -13Q144 -13 104 7T42 65T19 151Q19 203 43 239T108 295T198 315Q271 315 317 282T377 183L311 198V309Q311 334 293 352T237 370Q210 370 175 363T101 337L55 452Q99 474 152 488T262 503Q331 503 378 478T450
408T474 300V0H338L307 97L377 119Q362 58 318 23T196 -13ZM251 97Q279 97 296 112T313 151Q313 174 296 189T251 204Q221 204 205 189T188 151Q188 127 204 112T251 97ZM521 560Q487 560 460 575T416 618T399 678Q399 713 415 740T459 782T521 798Q555 798 582
783T625 740T642 678Q642 645 626 618T582 576T521 560ZM521 647Q535 647 544 656T553 679Q553 694 544 702T521 711Q507 711 498 703T489 679Q489 665 498 656T521 647Z" />
<glyph unicode="&#xe6;" horiz-adv-x="807" d="M210 -14Q121 -14 70 32T19 151Q19 203 43 239T108 295T198 315Q269 315 314 282T374 183L310 198V309Q310 334 292 352T236 370Q210 370 177 363T108 337L61 452Q104 474 154 488T253 503Q324 503 370 478T441 408T465
300V97H306L413 119Q380 49 333 18T210 -14ZM252 97Q280 97 297 112T314 151Q314 174 297 189T252 204Q223 204 207 189T190 151Q190 127 206 112T252 97ZM566 -13Q492 -13 438 18T353 108T323 245Q323 320 352 378T434 469T557 503Q630 503 681 469T760 379T788
252Q788 233 787 217T784 191H443V298H658L645 278Q646 327 622 352T558 378Q520 378 493 352T466 275V220Q466 169 493 142T570 114Q609 114 633 130T674 173L781 115Q754 56 697 22T566 -13Z" />
<glyph unicode="&#xe7;" horiz-adv-x="511" d="M271 -13Q196 -13 140 20T51 112T19 246Q19 320 51 378T139 469T271 503Q356 503 417 462T504 352L359 286Q346 314 326 329T273 345Q234 345 208 318T181 246Q181 199 207 173T273 146Q306 146 326 161T359 203L504
139Q478 70 417 29T271 -13ZM506 -222Q477 -222 451 -215T399 -195L428 -121Q447 -129 466 -134T504 -140Q522 -140 530 -134T539 -119Q539 -110 531 -105T503 -99H439L461 0H551L535 -70L506 -23Q563 -23 596 -48T629 -119Q629 -166 596 -194T506 -222Z" />
<glyph unicode="&#xe8;" horiz-adv-x="532" d="M266 -9Q192 -9 137 22T50 110T19 245Q19 320 50 378T136 469T266 503Q343 503 398 468T483 376T513 247Q513 231 512 218T509 197H140V307H384L370 271Q370 318 345 348T268 378Q220 378 192 350T164 275V220Q164
169 194 142T278 114Q321 114 346 130T389 173L497 115Q466 58 406 25T266 -9ZM525 546L362 696L439 773L601 624L525 546Z" />
<glyph unicode="&#xe9;" horiz-adv-x="532" d="M266 -9Q192 -9 137 22T50 110T19 245Q19 320 50 378T136 469T266 503Q343 503 398 468T483 376T513 247Q513 231 512 218T509 197H140V307H384L370 271Q370 318 345 348T268 378Q220 378 192 350T164 275V220Q164
169 194 142T278 114Q321 114 346 130T389 173L497 115Q466 58 406 25T266 -9ZM262 546L186 624L348 773L425 696L262 546Z" />
<glyph unicode="&#xea;" horiz-adv-x="532" d="M266 -9Q192 -9 137 22T50 110T19 245Q19 320 50 378T136 469T266 503Q343 503 398 468T483 376T513 247Q513 231 512 218T509 197H140V307H384L370 271Q370 318 345 348T268 378Q220 378 192 350T164 275V220Q164
169 194 142T278 114Q321 114 346 130T389 173L497 115Q466 58 406 25T266 -9ZM440 550L362 623L522 764L681 623L604 550L490 652H554L440 550Z" />
<glyph unicode="&#xeb;" horiz-adv-x="532" d="M266 -9Q192 -9 137 22T50 110T19 245Q19 320 50 378T136 469T266 503Q343 503 398 468T483 376T513 247Q513 231 512 218T509 197H140V307H384L370 271Q370 318 345 348T268 378Q220 378 192 350T164 275V220Q164
169 194 142T278 114Q321 114 346 130T389 173L497 115Q466 58 406 25T266 -9ZM335 640Q335 676 360 701T420 726Q455 726 480 701T505 640Q505 605 481 580T420 555Q384 555 360 580T335 640ZM540 640Q540 676 564 701T624 726Q660 726 685 701T710 640Q710 605
685 580T624 555Q588 555 564 580T540 640Z" />
<glyph unicode="&#xec;" horiz-adv-x="261" d="M212 0H49V490H212V0ZM133 546L-30 696L47 773L209 624L133 546Z" />
<glyph unicode="&#xed;" horiz-adv-x="261" d="M212 0H49V490H212V0ZM383 546L307 624L469 773L546 696L383 546Z" />
<glyph unicode="&#xee;" horiz-adv-x="261" d="M212 0H49V490H212V0ZM67 550L-13 622L131 769L274 622L194 550L109 647H152L67 550Z" />
<glyph unicode="&#xef;" horiz-adv-x="261" d="M212 0H49V490H212V0ZM224 555Q187 555 164 579T140 640Q140 678 163 702T224 726Q263 726 286 702T310 640Q310 603 287 579T224 555ZM38 555Q0 555 -23 579T-47 640Q-47 678 -24 702T38 726Q76 726 99 702T123
640Q123 603 100 579T38 555Z" />
<glyph unicode="&#xf0;" horiz-adv-x="564" d="M269 -13Q198 -13 144 15T59 94T28 210Q28 278 57 327T136 404T245 431Q323 431 373 392T435 291H402Q400 366 366 425T259 526T66 594L120 711L137 707Q231 689 298 656T411 578T483 485T522 387T534 294Q534 193
501 125T408 22T269 -13ZM277 124Q318 124 344 147T370 210Q370 249 344 271T277 294Q238 294 212 272T186 210Q186 171 212 148T277 124ZM191 437L126 518L224 598L273 648L359 718L428 635L358 580L303 526L191 437Z" />
<glyph unicode="&#xf1;" horiz-adv-x="554" d="M356 503Q405 503 436 486T484 441T507 376T514 301V0H352V282Q352 320 340 332T305 344Q288 344 269 338T232 319T195 289L160 370H210V0H48V490H168L200 389L141 395Q166 423 199 447T272 487T356 503ZM601 568Q568
568 528 591Q514 600 505 603T486 606Q458 606 436 570L340 618Q362 671 393 699T469 727Q487 727 504 721T542 704Q553 697 563 693T584 689Q599 689 611 697T636 727L732 679Q708 621 675 595T601 568Z" />
<glyph unicode="&#xf2;" horiz-adv-x="560" d="M279 -13Q202 -13 144 20T53 111T20 244Q20 320 53 378T144 469T279 503Q357 503 415 470T506 378T539 244Q539 169 507 111T416 20T279 -13ZM279 145Q321 145 348 172T375 245Q375 290 348 317T279 345Q238 345
211 318T184 245Q184 201 211 173T279 145ZM538 546L375 696L452 773L614 624L538 546Z" />
<glyph unicode="&#xf3;" horiz-adv-x="560" d="M279 -13Q202 -13 144 20T53 111T20 244Q20 320 53 378T144 469T279 503Q357 503 415 470T506 378T539 244Q539 169 507 111T416 20T279 -13ZM279 145Q321 145 348 172T375 245Q375 290 348 317T279 345Q238 345
211 318T184 245Q184 201 211 173T279 145ZM275 546L199 624L361 773L438 696L275 546Z" />
<glyph unicode="&#xf4;" horiz-adv-x="560" d="M279 -13Q202 -13 144 20T53 111T20 244Q20 320 53 378T144 469T279 503Q357 503 415 470T506 378T539 244Q539 169 507 111T416 20T279 -13ZM279 145Q321 145 348 172T375 245Q375 290 348 317T279 345Q238 345
211 318T184 245Q184 201 211 173T279 145ZM453 550L375 623L535 764L694 623L617 550L503 652H567L453 550Z" />
<glyph unicode="&#xf5;" horiz-adv-x="560" d="M279 -13Q202 -13 144 20T53 111T20 244Q20 320 53 378T144 469T279 503Q357 503 415 470T506 378T539 244Q539 169 507 111T416 20T279 -13ZM279 145Q321 145 348 172T375 245Q375 290 348 317T279 345Q238 345
211 318T184 245Q184 201 211 173T279 145ZM601 568Q568 568 528 591Q514 600 505 603T486 606Q458 606 436 570L340 618Q362 671 393 699T469 727Q487 727 504 721T542 704Q553 697 563 693T584 689Q599 689 611 697T636 727L732 679Q708 621 675 595T601 568Z"
/>
<glyph unicode="&#xf6;" horiz-adv-x="560" d="M279 -13Q202 -13 144 20T53 111T20 244Q20 320 53 378T144 469T279 503Q357 503 415 470T506 378T539 244Q539 169 507 111T416 20T279 -13ZM279 145Q321 145 348 172T375 245Q375 290 348 317T279 345Q238 345
211 318T184 245Q184 201 211 173T279 145ZM348 640Q348 676 373 701T433 726Q468 726 493 701T518 640Q518 605 494 580T433 555Q397 555 373 580T348 640ZM553 640Q553 676 577 701T637 726Q673 726 698 701T723 640Q723 605 698 580T637 555Q601 555 577 580T553
640Z" />
<glyph unicode="&#xf7;" horiz-adv-x="670" d="M333 39Q281 39 250 66T219 137Q219 179 250 206T333 234Q384 234 415 207T447 137Q447 93 416 66T333 39ZM333 447Q281 447 250 473T219 542Q219 587 250 614T333 642Q384 642 415 615T447 542Q447 500 416 474T333
447ZM597 262H74V420H597V262Z" />
<glyph unicode="&#xf8;" horiz-adv-x="559" d="M279 -13Q202 -13 144 20T53 111T20 245Q20 320 52 378T143 469T279 503Q356 503 415 470T507 378T540 245Q540 169 507 111T415 20T279 -13ZM279 126Q331 126 364 158T397 242Q397 297 364 330T279 363Q228 363
195 330T162 242Q162 191 195 159T279 126ZM132 -34L46 29L432 528L516 464L132 -34Z" />
<glyph unicode="&#xf9;" horiz-adv-x="555" d="M217 -13Q163 -13 129 3T75 46T49 110T41 189V490H203V207Q203 170 217 158T255 145Q273 145 290 151T325 169T360 200L394 120H344V490H507V0H387L354 101L413 94Q389 67 358 43T292 3T217 -13ZM533 546L370 696L447
773L609 624L533 546Z" />
<glyph unicode="&#xfa;" horiz-adv-x="555" d="M217 -13Q163 -13 129 3T75 46T49 110T41 189V490H203V207Q203 170 217 158T255 145Q273 145 290 151T325 169T360 200L394 120H344V490H507V0H387L354 101L413 94Q389 67 358 43T292 3T217 -13ZM270 546L194 624L356
773L433 696L270 546Z" />
<glyph unicode="&#xfb;" horiz-adv-x="555" d="M217 -13Q163 -13 129 3T75 46T49 110T41 189V490H203V207Q203 170 217 158T255 145Q273 145 290 151T325 169T360 200L394 120H344V490H507V0H387L354 101L413 94Q389 67 358 43T292 3T217 -13ZM448 550L370 623L530
764L689 623L612 550L498 652H562L448 550Z" />
<glyph unicode="&#xfc;" horiz-adv-x="555" d="M217 -13Q163 -13 129 3T75 46T49 110T41 189V490H203V207Q203 170 217 158T255 145Q273 145 290 151T325 169T360 200L394 120H344V490H507V0H387L354 101L413 94Q389 67 358 43T292 3T217 -13ZM343 640Q343 676
368 701T428 726Q463 726 488 701T513 640Q513 605 489 580T428 555Q392 555 368 580T343 640ZM548 640Q548 676 572 701T632 726Q668 726 693 701T718 640Q718 605 693 580T632 555Q596 555 572 580T548 640Z" />
<glyph unicode="&#xfd;" horiz-adv-x="566" d="M204 28L7 490H170L361 41L204 28ZM108 -190L397 490H560L271 -190H108ZM279 546L203 624L365 773L442 696L279 546Z" />
<glyph unicode="&#xfe;" horiz-adv-x="572" d="M326 -13Q262 -13 215 16T142 102T116 245Q116 325 142 382T216 471T327 503Q394 503 444 470T523 378T552 245Q552 170 523 112T443 20T326 -13ZM48 -190V681H210V356H201V144H210V-190H48ZM295 143Q334 143 360
171T387 245Q387 289 361 318T295 348Q256 348 229 319T202 245Q202 200 229 172T295 143Z" />
<glyph unicode="&#xff;" horiz-adv-x="566" d="M204 28L7 490H170L361 41L204 28ZM108 -190L397 490H560L271 -190H108ZM96 640Q96 676 121 701T181 726Q216 726 241 701T266 640Q266 605 242 580T181 555Q145 555 121 580T96 640ZM301 640Q301 676 325 701T385
726Q421 726 446 701T471 640Q471 605 446 580T385 555Q349 555 325 580T301 640Z" />
<glyph unicode="&#x2013;" horiz-adv-x="574" d="M551 211H23V355H551V211Z" />
<glyph unicode="&#x2014;" horiz-adv-x="970" d="M948 211H23V355H948V211Z" />
<glyph unicode="&#x2018;" horiz-adv-x="269" d="M134 354Q104 354 78 369T36 413T19 482Q19 516 35 555T87 633T179 707L248 634Q211 599 196 569T180 515Q180 488 194 473T242 436Q233 401 203 378T134 354Z" />
<glyph unicode="&#x2019;" horiz-adv-x="269" d="M89 346L20 418Q58 454 73 484T88 538Q88 566 74 581T26 616Q37 651 66 675T135 700Q165 700 191 684T233 640T249 572Q249 520 213 459T89 346Z" />
<glyph unicode="&#x201a;" horiz-adv-x="269" d="M93 -229L24 -157Q62 -121 77 -91T92 -37Q92 -9 78 6T30 41Q41 76 70 100T139 125Q169 125 195 109T237 65T253 -3Q253 -55 217 -116T93 -229Z" />
<glyph unicode="&#x201c;" horiz-adv-x="524" d="M134 354Q104 354 78 369T36 413T19 482Q19 516 35 555T87 633T179 707L248 634Q211 599 196 569T180 515Q180 488 194 473T242 436Q233 401 203 378T134 354ZM389 354Q359 354 333 369T291 413T274 482Q274 516
290 555T342 633T434 707L503 634Q466 599 451 569T435 515Q435 488 449 473T497 436Q488 401 458 378T389 354Z" />
<glyph unicode="&#x201d;" horiz-adv-x="523" d="M89 346L20 418Q58 454 73 484T88 538Q88 566 74 581T26 616Q37 651 66 675T135 700Q165 700 191 684T233 640T249 572Q249 520 213 459T89 346ZM343 346L274 418Q312 454 327 484T342 538Q342 566 328 581T280
616Q291 651 320 675T389 700Q419 700 445 684T487 640T503 572Q503 520 467 459T343 346Z" />
<glyph unicode="&#x201e;" horiz-adv-x="524" d="M93 -228L24 -156Q62 -120 77 -90T92 -36Q92 -8 78 7T30 42Q41 77 70 101T139 126Q169 126 195 110T237 66T253 -2Q253 -54 217 -115T93 -228ZM348 -228L279 -156Q317 -120 332 -90T347 -36Q347 -8 333 7T285 42Q296
77 325 101T394 126Q424 126 450 110T492 66T508 -2Q508 -54 472 -115T348 -228Z" />
<glyph unicode="&#x2022;" horiz-adv-x="366" d="M184 127Q142 127 107 148T51 204T30 281Q30 323 51 358T107 414T184 435Q225 435 259 414T315 358T336 281Q336 239 315 204T260 148T184 127Z" />
<glyph unicode="&#x2039;" horiz-adv-x="369" d="M177 96L28 304L178 515H348L198 304L347 96H177Z" />
<glyph unicode="&#x203a;" horiz-adv-x="369" d="M22 96L170 304L20 515H191L340 304L192 96H22Z" />
</font>
</defs>
</svg>
