<?xml version="1.0" standalone="no"?>
<!DOCTYPE svg PUBLIC "-//W3C//DTD SVG 1.1//EN" "http://www.w3.org/Graphics/SVG/1.1/DTD/svg11.dtd">
<svg xmlns="http://www.w3.org/2000/svg">
<defs >
<font id="Gabarito" horiz-adv-x="527" ><font-face
    font-family="Gabarito Medium"
    units-per-em="1000"
    panose-1="0 0 0 0 0 0 0 0 0 0"
    ascent="940"
    descent="-260"
    alphabetic="0" />
<glyph unicode=" " horiz-adv-x="260" />
<glyph unicode="!" horiz-adv-x="289" d="M74 710H215L205 377L193 219H96L84 377L74 710ZM144 -6Q110 -6 86 18T61 77Q61 111 85 135T144 160Q179 160 203 136T228 77Q228 42 204 18T144 -6Z" />
<glyph unicode="&quot;" horiz-adv-x="331" d="M58 387L28 542V681H141V387H58ZM221 387L191 542V681H304V387H221Z" />
<glyph unicode="#" horiz-adv-x="666" d="M230 689H329L200 -8H101L230 689ZM629 512V423H86V512H629ZM580 259V170H37V259H580ZM449 689H548L420 -8H321L449 689Z" />
<glyph unicode="$" horiz-adv-x="536" d="M217 599V757H314V599H217ZM500 187Q500 131 471 87T389 16T268 -11Q195 -11 135 20T36 135L129 190Q162 139 199 119T277 98Q324 98 353 121T382 178Q382 198 372 218T332 255T244 285Q174 300 133 326T74 388T56 465Q56
519 82 562T156 631T270 657Q345 657 399 627T490 540L396 478Q365 519 332 532T264 545Q219 545 195 524T171 472Q171 453 181 436T220 404T300 376Q404 352 452 307T500 187ZM217 -117V40H314V-117H217Z" />
<glyph unicode="%" horiz-adv-x="740" d="M133 -11L62 43L605 669L677 614L133 -11ZM182 360Q139 360 103 380T45 436T23 515Q23 559 45 594T103 650T182 671Q226 671 262 650T319 593T340 515Q340 472 319 437T261 381T182 360ZM182 450Q209 450 227 468T246
515Q246 544 228 562T182 581Q154 581 137 563T119 515Q119 486 136 468T182 450ZM558 -11Q516 -11 480 9T422 65T400 144Q400 188 421 223T479 279T558 300Q602 300 638 280T696 223T717 144Q717 101 696 66T638 10T558 -11ZM558 79Q586 79 604 97T622 144Q622
173 604 192T558 211Q531 211 513 192T495 144Q495 115 513 97T558 79Z" />
<glyph unicode="&amp;" horiz-adv-x="645" d="M625 315H294Q238 315 206 287T174 209Q174 160 206 132T293 104Q357 104 385 142T414 257V347H530V247Q530 167 507 117T448 39T372 0T297 -11Q220 -11 166 18T84 97T56 206Q56 260 88 305T177 377T309 405L291 343Q200
343 146 392T92 521Q92 567 114 610T181 682T291 711Q319 711 350 706T414 682T478 628L399 556Q375 579 351 588T300 597Q256 597 233 572T209 514Q209 475 239 448T330 421H625V315Z" />
<glyph unicode="&apos;" horiz-adv-x="168" d="M58 387L28 542V681H141V387H58Z" />
<glyph unicode="(" horiz-adv-x="351" d="M174 325Q174 198 218 101T342 -78L263 -150Q205 -96 159 -27T86 130T59 325Q59 432 85 519T158 677T263 799L342 727Q263 647 219 550T174 325Z" />
<glyph unicode=")" horiz-adv-x="351" d="M177 325Q177 452 133 549T8 727L88 799Q146 747 192 677T264 520T291 325Q291 218 265 131T192 -26T88 -150L8 -78Q88 3 132 100T177 325Z" />
<glyph unicode="*" horiz-adv-x="450" d="M171 362L89 408L169 516L37 502V593L169 578L89 686L170 730L226 609L281 730L362 685L283 579L413 593V502L282 516L362 409L281 363L226 483L171 362Z" />
<glyph unicode="+" horiz-adv-x="670" d="M276 97V583H384V97H276ZM97 282V390H574V282H97Z" />
<glyph unicode="," horiz-adv-x="277" d="M229 66Q229 11 194 -47T86 -156L42 -115Q76 -84 93 -47T110 15Q110 56 91 79T44 117Q55 139 68 151T99 169T136 175Q160 175 181 162T216 124T229 66Z" />
<glyph unicode="-" horiz-adv-x="368" d="M337 234H32V341H337V234Z" />
<glyph unicode="." horiz-adv-x="273" d="M136 -7Q113 -7 93 5T61 37T49 80Q49 104 61 123T93 155T136 167Q161 167 180 155T212 124T224 80Q224 57 212 37T181 5T136 -7Z" />
<glyph unicode="/" horiz-adv-x="468" d="M94 -81L0 -38L374 730L468 686L94 -81Z" />
<glyph unicode="0" horiz-adv-x="548" d="M274 -11Q202 -11 148 31T65 151T36 340Q36 448 65 527T148 648T274 691Q347 691 400 649T483 527T512 340Q512 230 483 152T401 31T274 -11ZM274 101Q317 101 343 133T381 219T394 340Q394 399 382 454T343 543T274 578Q230
578 203 544T165 454T153 340Q153 274 164 220T203 133T274 101Z" />
<glyph unicode="1" horiz-adv-x="353" d="M157 571L199 547Q192 529 172 511T117 482T33 470V580Q74 580 105 592T158 628T190 681H273V0H157V571Z" />
<glyph unicode="2" horiz-adv-x="503" d="M454 504Q454 463 442 424T404 344T337 257L156 49L148 110H465V0H48V96L232 304Q273 351 296 383T329 441T339 492Q339 534 314 556T256 579Q221 579 187 558T115 484L31 545Q60 592 93 625T167 674T255 691Q317 691
361 667T430 600T454 504Z" />
<glyph unicode="3" horiz-adv-x="509" d="M256 -11Q180 -11 126 15T26 97L100 171Q134 135 168 118T244 101Q302 101 332 129T362 201Q362 243 342 266T287 300T211 311Q199 311 186 311T161 308V410Q178 409 185 409T204 408Q267 408 301 432T335 499Q335 537
311 558T244 579Q205 579 174 562T112 510L37 582Q89 641 139 666T255 691Q315 691 359 669T426 606T450 511Q450 429 390 379T226 329V391Q299 391 356 369T446 303T479 193Q479 138 453 92T377 17T256 -11Z" />
<glyph unicode="4" horiz-adv-x="563" d="M445 442V0H327V237L309 273L373 442H445ZM37 166V237L209 681H326L152 223L134 278H539V166H37Z" />
<glyph unicode="5" horiz-adv-x="525" d="M147 272L61 293V681H453V569H129L172 611V318L118 353Q147 399 188 422T290 445Q346 445 393 418T468 340T497 220Q497 145 466 94T383 16T267 -11Q188 -11 132 19T41 101L131 165Q156 132 189 116T256 100Q315 100 346
132T378 218Q378 269 345 299T262 330Q229 330 201 317T147 272Z" />
<glyph unicode="6" horiz-adv-x="544" d="M30 321Q30 437 64 520T162 647T311 691Q366 691 414 673T502 621L439 537Q411 559 379 570T313 582Q268 582 231 554T171 466T150 309H127Q150 366 201 398T318 430Q384 430 429 402T498 325T522 218Q522 151 495 100T416
19T289 -11Q207 -11 150 24T61 132T30 321ZM163 210Q163 159 196 129T283 98Q339 98 371 128T404 210Q404 261 372 292T283 324Q230 324 197 293T163 210Z" />
<glyph unicode="7" horiz-adv-x="485" d="M62 0L368 630L415 569H27V681H468V583L193 0H62Z" />
<glyph unicode="8" horiz-adv-x="538" d="M269 -11Q196 -11 145 15T69 85T43 183Q43 235 65 273T127 338T219 375V322Q171 334 136 360T82 423T63 504Q63 558 87 600T158 667T271 691Q335 691 380 667T450 601T475 504Q475 464 459 429T412 367T339 327L337 371Q386
358 421 332T475 269T495 183Q495 130 470 86T394 15T269 -11ZM269 101Q318 101 348 128T378 200Q378 247 348 275T269 303Q220 303 190 275T160 200Q160 155 190 128T269 101ZM269 412Q310 412 336 436T363 498Q363 533 337 556T269 579Q229 579 202 556T175 498Q175
461 202 437T269 412Z" />
<glyph unicode="9" horiz-adv-x="543" d="M521 359Q521 243 487 161T390 34T240 -11Q186 -11 138 7T49 59L113 144Q141 122 173 110T239 98Q285 98 322 126T380 214T401 372H425Q401 314 350 282T234 250Q168 250 122 278T53 355T29 462Q29 529 56 580T136 661T263
691Q345 691 402 656T490 548T521 359ZM389 471Q389 522 356 552T269 583Q214 583 181 552T147 471Q147 419 180 388T269 356Q323 356 356 387T389 471Z" />
<glyph unicode=":" horiz-adv-x="273" d="M136 -7Q113 -7 93 5T61 37T49 80Q49 104 61 123T93 155T136 167Q161 167 180 155T212 124T224 80Q224 57 212 37T181 5T136 -7ZM136 322Q113 322 93 334T61 366T49 409Q49 433 61 452T93 484T136 496Q161 496 180 484T212
453T224 409Q224 386 212 366T181 334T136 322Z" />
<glyph unicode=";" horiz-adv-x="277" d="M135 322Q112 322 93 334T61 366T49 409Q49 433 61 452T92 484T135 496Q160 496 179 484T211 453T223 409Q223 386 211 366T180 334T135 322ZM229 66Q229 11 194 -47T86 -156L42 -115Q76 -84 93 -47T110 15Q110 56 90
79T44 117Q55 139 68 151T99 169T135 175Q160 175 181 162T215 124T229 66Z" />
<glyph unicode="&lt;" horiz-adv-x="670" d="M493 36L124 264V330L493 558L547 472L216 269V326L547 122L493 36Z" />
<glyph unicode="=" horiz-adv-x="670" d="M115 340V439H556V340H115ZM115 145V244H556V145H115Z" />
<glyph unicode="&gt;" horiz-adv-x="670" d="M172 36L124 116L455 320V269L124 472L172 552L547 324V264L172 36Z" />
<glyph unicode="?" horiz-adv-x="540" d="M237 202L178 297L245 340Q292 370 321 394T363 444T376 500Q376 547 345 575T268 604Q233 604 197 589T123 535L103 516L32 596L47 612Q89 657 144 687T274 717Q338 717 388 689T467 611T495 501Q495 459 481 419T428
339T321 255L237 202ZM263 -8Q228 -8 204 16T180 75Q180 109 204 133T263 158Q297 158 321 134T346 75Q346 40 322 16T263 -8Z" />
<glyph unicode="@" horiz-adv-x="847" d="M354 150Q316 150 286 169T237 223T219 301Q219 367 245 420T317 505T417 536Q460 536 487 515T529 460T543 386Q543 344 530 302T492 226T433 171T354 150ZM447 -57Q359 -57 285 -29T157 50T73 173T43 331Q43 419 74
493T161 620T287 703T438 733Q518 733 584 706T700 631T777 522T804 394Q804 323 784 275T733 198T665 156T599 143Q541 143 505 175T469 270Q469 275 469 281T471 295L495 431L543 531H612L575 352Q573 340 570 319T566 280Q566 261 578 249T609 236Q630 236 650
251T685 300T699 391Q699 455 667 509T576 597T439 631Q355 631 290 592T187 486T150 333Q150 250 187 186T291 84T441 47Q512 47 561 66T654 119L711 37Q662 -7 593 -32T447 -57ZM379 238Q410 238 432 260T465 316T477 385Q477 412 465 431T427 450Q396 450 374
428T340 372T328 304Q328 276 340 257T379 238Z" />
<glyph unicode="A" horiz-adv-x="659" d="M152 256H503V148H152V256ZM17 0L259 681H404L643 0H525L318 601H346L134 0H17Z" />
<glyph unicode="B" horiz-adv-x="596" d="M76 0V681H309Q383 681 431 661T504 600T529 497Q529 446 505 407T440 347T351 325L356 370Q417 370 460 348T527 286T551 191Q551 97 493 49T326 0H76ZM192 614V74L148 111H327Q377 111 405 137T433 205Q433 251 406
275T329 299H148V402H311Q360 402 385 423T411 485Q411 523 385 546T311 570H152L192 614Z" />
<glyph unicode="C" horiz-adv-x="705" d="M372 -11Q268 -11 190 34T70 159T27 340Q27 416 52 480T124 592T234 665T372 691Q489 691 564 642T684 507L574 470Q532 531 483 555T372 579Q307 579 256 549T175 464T145 340Q145 270 175 216T256 132T372 101Q433 101
482 125T574 210L684 173Q639 87 564 38T372 -11Z" />
<glyph unicode="D" horiz-adv-x="673" d="M76 0V681H305Q406 681 483 640T603 523T646 339Q646 231 603 155T482 40T304 0H76ZM192 77L153 110H297Q362 110 413 134T495 209T526 339Q526 416 496 467T415 545T298 571H146L192 609V77Z" />
<glyph unicode="E" horiz-adv-x="547" d="M162 287V397H439V287H162ZM159 571L192 613V79L154 110H497V0H76V681H497V571H159Z" />
<glyph unicode="F" horiz-adv-x="517" d="M164 282V392H433V282H164ZM192 0H76V681H489V571H159L192 613V0Z" />
<glyph unicode="G" horiz-adv-x="723" d="M372 -11Q268 -11 191 34T70 159T27 338Q27 415 52 479T124 591T234 665T372 691Q488 691 563 643T683 510L573 473Q531 533 482 556T372 579Q307 579 256 549T175 464T145 338Q145 269 175 215T256 130T371 99Q433 99
483 125T562 198T593 304L617 249H364V356H697Q700 344 702 329T704 300Q704 234 679 178T608 79T502 13T372 -11Z" />
<glyph unicode="H" horiz-adv-x="691" d="M499 0V681H615V0H499ZM76 0V681H192V0H76ZM152 278V388H535V278H152Z" />
<glyph unicode="I" horiz-adv-x="269" d="M192 0H76V681H192V0Z" />
<glyph unicode="J" horiz-adv-x="537" d="M253 96Q299 96 323 123T347 199V681H465V200Q465 136 440 88T367 12T253 -15Q187 -15 139 10T66 82T41 196V237H158V201Q158 147 183 122T253 96Z" />
<glyph unicode="K" horiz-adv-x="618" d="M76 0V681H192V0H76ZM459 0L150 332V347L464 681H609L262 313L270 367L613 0H459Z" />
<glyph unicode="L" horiz-adv-x="501" d="M477 0H76V681H192V82L172 110H477V0Z" />
<glyph unicode="M" horiz-adv-x="872" d="M31 0L154 681H258L436 195V195L615 681H718L842 0H722L670 317Q659 384 651 449T640 582H671Q653 505 635 444T594 318L481 10H391L278 318Q255 383 237 444T201 582H232Q229 515 222 450T202 317L150 0H31Z" />
<glyph unicode="N" horiz-adv-x="728" d="M550 0L134 548L192 564V0H76V681H178L582 149L536 146V681H652V0H550Z" />
<glyph unicode="O" horiz-adv-x="757" d="M27 340Q27 416 53 480T126 592T238 665T380 691Q455 691 519 665T630 592T704 481T730 340Q730 264 704 200T631 89T519 15T380 -11Q303 -11 239 15T127 88T53 200T27 340ZM145 340Q145 270 175 217T259 133T380 102Q447
102 499 132T582 217T612 340Q612 411 582 464T500 548T380 578Q312 578 259 548T176 464T145 340Z" />
<glyph unicode="P" horiz-adv-x="585" d="M169 319H304Q366 319 402 352T439 444Q439 507 403 539T305 571H169L192 597V0H76V681H319Q392 681 445 651T529 567T559 444Q559 376 529 323T445 239T319 209H169V319Z" />
<glyph unicode="Q" horiz-adv-x="757" d="M580 -42L383 289H503L700 -42H580ZM27 340Q27 416 53 480T126 592T238 665T380 691Q455 691 519 665T630 592T704 481T730 340Q730 264 704 200T631 89T519 15T380 -11Q303 -11 239 15T127 88T53 200T27 340ZM145 340Q145
270 175 217T259 133T380 102Q447 102 499 132T582 217T612 340Q612 411 582 464T500 548T380 578Q312 578 259 548T176 464T145 340Z" />
<glyph unicode="R" horiz-adv-x="613" d="M76 0V681H327Q398 681 452 652T536 571T567 454Q567 388 537 337T452 258T327 229H169V339H312Q374 339 410 369T447 454Q447 512 411 541T312 571H168L192 597V0H76ZM447 0L293 281H420L574 0H447Z" />
<glyph unicode="S" horiz-adv-x="560" d="M295 -16Q240 -16 190 0T99 53T30 150L124 206Q157 148 199 121T300 94Q355 94 383 118T412 184Q412 209 400 227T356 262T266 293Q186 313 141 342T78 411T60 498Q60 556 87 599T165 667T286 692Q369 692 423 660T514
575L419 512Q390 549 356 564T284 580Q231 580 203 560T175 500Q175 467 202 443T307 400Q391 379 440 351T509 282T530 185Q530 128 501 83T420 11T295 -16Z" />
<glyph unicode="T" horiz-adv-x="562" d="M219 0V608H335V0H219ZM10 571V681H552V571H10Z" />
<glyph unicode="U" horiz-adv-x="681" d="M340 -11Q259 -11 199 20T106 113T72 265V681H188V274Q188 192 227 147T340 101Q415 101 454 146T493 274V681H609V265Q609 175 576 113T482 20T340 -11Z" />
<glyph unicode="V" horiz-adv-x="642" d="M248 0L9 681H127L337 80H306L516 681H634L395 0H248Z" />
<glyph unicode="W" horiz-adv-x="974" d="M639 0L455 600L431 681H543L731 61L678 69L840 681H957L771 0H639ZM203 0L17 681H134L296 69L243 61L431 681H543L519 600L335 0H203Z" />
<glyph unicode="X" horiz-adv-x="651" d="M156 681L343 407H316L503 681H642L390 324L376 372L642 0H502L300 289H347L149 0H9L272 372L269 324L18 681H156Z" />
<glyph unicode="Y" horiz-adv-x="572" d="M318 300H252L444 681H571L330 220L343 305V0H227V305L239 220L-1 681H128L318 300Z" />
<glyph unicode="Z" horiz-adv-x="564" d="M408 609L407 571H54V681H523V588L163 70L153 110H527V0H46V94L408 609Z" />
<glyph unicode="[" horiz-adv-x="319" d="M157 679V785H299V679H157ZM188 -145H72V785H188V-145ZM156 -145V-40H299V-145H156Z" />
<glyph unicode="\" horiz-adv-x="468" d="M374 -81L0 686L94 730L468 -38L374 -81Z" />
<glyph unicode="]" horiz-adv-x="311" d="M154 679H13V785H154V679ZM123 -145V785H239V-145H123ZM155 -145H13V-40H155V-145Z" />
<glyph unicode="^" horiz-adv-x="670" d="M547 367L487 301L335 431L183 301L123 367L335 554L547 367Z" />
<glyph unicode="_" horiz-adv-x="548" d="M529 -89H18V5H529V-89Z" />
<glyph unicode="`" horiz-adv-x="547" d="M316 554L161 697L218 755L373 613L316 554Z" />
<glyph unicode="a" horiz-adv-x="498" d="M211 -14Q155 -14 115 6T52 64T30 152Q30 202 52 239T116 297T211 319Q282 319 325 287T385 197L327 201V322Q327 352 307 376T237 400Q209 400 175 394T105 370L70 456Q112 477 158 488T251 499Q316 499 358 476T422
412T443 320V0H354L328 91L385 108Q368 48 323 17T211 -14ZM238 81Q278 81 302 100T327 152Q327 187 303 205T238 224Q198 224 174 206T149 152Q149 119 173 100T238 81Z" />
<glyph unicode="b" horiz-adv-x="570" d="M315 -11Q250 -11 202 21T126 110T98 245Q98 323 125 380T200 468T315 499Q382 499 433 467T512 378T540 245Q540 169 512 112T434 22T315 -11ZM60 0V681H176V368H166V107H176L147 0H60ZM296 93Q352 93 387 135T422 245Q422
312 387 353T296 395Q241 395 206 354T170 244Q170 176 205 135T296 93Z" />
<glyph unicode="c" horiz-adv-x="510" d="M277 -11Q202 -11 147 22T61 112T30 244Q30 319 60 376T146 466T277 499Q352 499 410 460T495 356L387 309Q372 347 343 367T275 387Q221 387 185 350T148 244Q148 177 184 139T275 101Q314 101 343 121T387 179L495 133Q468
68 410 29T277 -11Z" />
<glyph unicode="d" horiz-adv-x="570" d="M255 -11Q189 -11 138 21T59 111T30 245Q30 321 58 378T138 467T256 499Q321 499 369 469T445 381T472 245Q472 168 445 111T369 21T255 -11ZM275 93Q331 93 365 134T400 244Q400 312 366 353T275 395Q219 395 184 354T148
245Q148 177 183 135T275 93ZM423 0L395 107H404V368H395V681H511V0H423Z" />
<glyph unicode="e" horiz-adv-x="540" d="M271 -10Q199 -10 145 21T61 110T30 243Q30 320 60 377T145 467T271 499Q344 499 398 467T483 377T513 244Q513 235 513 226T511 210H132V303H425L401 250Q401 319 369 363T272 407Q213 407 179 371T144 274V221Q144 159
178 123T274 86Q329 86 359 109T412 166L495 116Q462 54 407 22T271 -10Z" />
<glyph unicode="f" horiz-adv-x="322" d="M96 0V531Q96 584 114 620T165 674T244 692Q266 692 283 689T314 682V575Q303 577 293 579T268 581Q245 581 229 567T212 518V0H96ZM303 376H24V483H303V376Z" />
<glyph unicode="g" horiz-adv-x="575" d="M276 -199Q235 -199 197 -188T126 -150T71 -79L63 -64L152 -18Q177 -59 205 -79T277 -99Q332 -99 365 -64T399 43V157H409V382H399L427 488H515V64Q515 -22 485 -81T401 -169T276 -199ZM261 29Q194 29 143 58T63 140T34
263Q34 334 62 386T142 469T261 499Q324 499 372 470T446 387T473 263Q473 192 447 139T373 58T261 29ZM279 129Q335 129 370 166T405 264Q405 324 370 361T279 399Q223 399 188 362T152 263Q152 204 187 167T279 129Z" />
<glyph unicode="h" horiz-adv-x="552" d="M60 0V681H176V0H60ZM381 0V304Q381 353 361 369T310 386Q282 386 253 375T199 344T160 299L137 398Q165 429 198 451T268 486T346 499Q398 499 428 482T473 436T492 370T497 294V0H381Z" />
<glyph unicode="i" horiz-adv-x="240" d="M178 0H62V488H178V0ZM47 640Q47 672 66 692T120 713Q152 713 172 693T192 640Q192 608 172 588T120 568Q86 568 67 588T47 640Z" />
<glyph unicode="j" horiz-adv-x="244" d="M58 -194Q33 -194 18 -190T-3 -184V-86Q2 -87 9 -89T28 -91Q47 -91 57 -78T67 -42V488H183V-49Q183 -88 171 -121T131 -174T58 -194ZM53 640Q53 672 72 692T126 713Q158 713 178 693T198 640Q198 608 178 588T126 568Q92
568 73 588T53 640Z" />
<glyph unicode="k" horiz-adv-x="478" d="M143 246V262L351 488H485L253 231L245 290L488 0H351L143 246ZM60 681H174V0H60V681Z" />
<glyph unicode="l" horiz-adv-x="255" d="M165 -5Q136 -5 112 8T74 48T60 116V681H174V157Q174 124 189 113T224 102V3Q212 -1 197 -3T165 -5Z" />
<glyph unicode="m" horiz-adv-x="845" d="M60 0V488H147L171 399L137 398Q164 429 194 451T260 486T334 499Q385 499 415 482T459 436T478 370T483 294V0H367V304Q367 353 347 369T297 386Q257 386 219 361T160 299L151 362H176V0H60ZM674 0V304Q674 353 654 369T605
386Q564 386 526 361T467 299L445 398Q471 429 501 451T567 486T641 499Q692 499 722 482T766 436T785 370T790 294V0H674Z" />
<glyph unicode="n" horiz-adv-x="552" d="M346 499Q398 499 428 482T473 436T492 370T497 294V0H381V304Q381 353 361 369T310 386Q282 386 253 375T199 344T160 299L151 362H176V0H60V488H147L171 399L137 398Q165 429 198 451T268 486T346 499Z" />
<glyph unicode="o" horiz-adv-x="567" d="M283 -11Q208 -11 151 21T63 110T31 243Q31 320 62 377T151 467T283 499Q358 499 415 467T503 378T535 243Q535 168 504 111T415 21T283 -11ZM283 101Q343 101 380 140T417 244Q417 308 380 347T283 387Q223 387 186 348T149
244Q149 180 186 141T283 101Z" />
<glyph unicode="p" horiz-adv-x="570" d="M315 -11Q249 -11 201 20T125 108T98 243Q98 321 125 378T201 467T315 499Q383 499 433 467T512 378T540 243Q540 168 512 111T433 21T315 -11ZM60 -190V488H147L176 381H166V120H176V-190H60ZM296 93Q352 93 387 134T422
243Q422 311 387 353T296 395Q241 395 206 354T170 244Q170 176 205 135T296 93Z" />
<glyph unicode="q" horiz-adv-x="570" d="M256 -11Q189 -11 138 21T59 110T30 243Q30 320 58 377T138 467T255 499Q320 499 369 468T445 379T472 243Q472 165 445 108T370 20T256 -11ZM275 93Q331 93 365 134T400 244Q400 312 366 353T275 395Q219 395 184 353T148
243Q148 176 183 135T275 93ZM395 -190V120H404V381H395L423 488H511V-190H395Z" />
<glyph unicode="r" horiz-adv-x="353" d="M147 488L176 355V0H60V488H147ZM155 300L131 311V398L140 410Q150 427 172 448T223 484T284 499Q299 499 312 497T333 490V385H301Q235 385 202 365T155 300Z" />
<glyph unicode="s" horiz-adv-x="439" d="M224 -12Q170 -12 120 12T34 93L113 153Q143 117 170 101T236 85Q264 85 280 99T296 134Q296 148 288 159T259 179T197 199Q123 218 85 251T46 349Q46 390 67 424T128 479T222 500Q287 500 333 474T406 412L325 348Q308
367 280 383T211 400Q187 400 168 388T149 354Q149 333 168 319T240 293Q329 272 367 237T405 145Q405 97 380 62T314 7T224 -12Z" />
<glyph unicode="t" horiz-adv-x="372" d="M253 -9Q183 -9 143 29T102 151V482V488L124 601H218V161Q218 131 233 117T272 103Q288 103 301 105T324 110V2Q309 -3 293 -6T253 -9ZM27 382V488H324V382H27Z" />
<glyph unicode="u" horiz-adv-x="552" d="M218 -11Q163 -11 131 6T82 52T61 118T55 195V488H171V184Q171 136 192 120T243 103Q272 103 300 114T353 145T392 189L401 127H376V488H492V0H405L381 90H414Q389 60 357 37T290 2T218 -11Z" />
<glyph unicode="v" horiz-adv-x="512" d="M498 488L316 0H205L14 488H139L271 112H249L375 488H498Z" />
<glyph unicode="w" horiz-adv-x="740" d="M163 0L11 488H126L229 122H204L321 488H420L538 122H513L616 488H729L577 0H476L358 365H384L266 0H163Z" />
<glyph unicode="x" horiz-adv-x="503" d="M352 0L233 186H269L150 0H14L199 269L200 220L15 488H151L270 303H233L351 488H487L302 220L303 269L488 0H352Z" />
<glyph unicode="y" horiz-adv-x="518" d="M207 53L13 488H133L309 93L207 53ZM87 -190L390 488H510L207 -190H87Z" />
<glyph unicode="z" horiz-adv-x="462" d="M424 105V0H38V90L320 435L360 383H43V488H420V398L137 53L82 105H424Z" />
<glyph unicode="{" horiz-adv-x="318" d="M119 350Q153 350 185 333T237 285T257 219Q257 191 243 164T211 110T178 59T164 8Q164 -21 184 -33T232 -46H273L274 -147Q261 -150 247 -151T218 -152Q176 -152 145 -141T92 -111T59 -67T48 -13Q48 18 63 47T97 103T132
155T148 206Q148 227 134 244T92 273L50 291V364L92 381Q120 393 134 410T148 448Q148 474 133 499T98 552T63 607T48 668Q48 696 59 721T91 765T144 795T218 806Q232 806 246 805T274 802L273 701H232Q204 701 184 689T164 646Q164 621 178 597T210 546T243 492T257
435Q257 399 237 370T185 322T119 304V350Z" />
<glyph unicode="|" horiz-adv-x="262" d="M185 -122H77V822H185V-122Z" />
<glyph unicode="}" horiz-adv-x="318" d="M199 350V304Q165 304 133 322T81 369T60 435Q60 464 74 491T106 545T139 596T153 646Q153 676 134 688T86 701H45L44 802Q57 804 71 805T100 806Q142 806 173 795T226 765T259 721T270 668Q270 636 255 608T220 552T185
500T170 448Q170 428 184 411T226 381L268 364V291L226 273Q198 261 184 244T170 206Q170 181 185 156T219 103T254 47T270 -13Q270 -42 259 -67T227 -111T174 -141T100 -152Q86 -152 72 -151T44 -147L45 -46H86Q115 -46 134 -34T153 8Q153 33 139 58T107 110T74
163T60 219Q60 255 80 285T133 332T199 350Z" />
<glyph unicode="~" horiz-adv-x="670" d="M147 202L62 249Q82 285 105 313T161 358T238 375Q273 375 297 366T343 343T384 319T429 309Q461 309 482 330T524 386L609 339Q580 286 541 250T433 213Q399 213 374 222T328 245T287 268T242 278Q210 278 189 258T147 202Z" />
<glyph unicode="&#xa0;" horiz-adv-x="260" />
<glyph unicode="&#xa1;" horiz-adv-x="289" d="M216 -180H75L84 153L97 311H194L206 154L216 -180ZM145 537Q180 537 204 513T228 454Q228 420 204 396T145 371Q111 371 86 395T61 454Q61 489 86 513T145 537Z" />
<glyph unicode="&#xa2;" horiz-adv-x="530" d="M223 554V701H336V554H223ZM223 -2V146H336V-2H223ZM282 89Q208 89 153 123T69 215T40 344Q40 416 71 474T157 565T282 599Q364 599 423 565T514 455L416 408Q402 435 386 454T346 485T286 496Q225 496 191 455T157
345Q157 277 191 236T287 194Q339 194 367 218T416 281L514 234Q483 160 424 125T282 89Z" />
<glyph unicode="&#xa3;" horiz-adv-x="509" d="M77 482Q77 531 100 571T169 636T277 660Q338 660 388 635T477 553L396 483Q370 520 341 534T278 549Q242 549 217 526T191 464Q191 438 202 408T228 347T254 284T266 222Q266 178 249 140T206 75T154 37L147 112H482V0H67L44
72L85 98Q122 120 138 156T155 227Q155 260 144 287T116 343T89 404T77 482ZM395 245H44V348H395V245Z" />
<glyph unicode="&#xa4;" horiz-adv-x="593" d="M296 117Q241 117 194 144T118 219T89 325Q89 384 117 431T193 505T296 533Q355 533 402 506T476 431T504 325Q504 267 477 220T402 145T296 117ZM117 74L40 152L151 263L229 186L117 74ZM151 387L40 499L117 576L229
464L151 387ZM296 226Q339 226 366 254T394 325Q394 368 367 396T296 424Q254 424 226 396T198 325Q198 282 226 254T296 226ZM476 74L364 186L441 263L553 152L476 74ZM441 387L364 464L476 576L553 499L441 387Z" />
<glyph unicode="&#xa5;" horiz-adv-x="538" d="M210 0V99H42V199H210V256H42V357H160L13 650H125L268 353L413 650H525L376 357H495V256H326V199H495V99H326V0H210Z" />
<glyph unicode="&#xa6;" horiz-adv-x="262" d="M185 411H77V822H185V411ZM185 -122H77V289H185V-122Z" />
<glyph unicode="&#xa7;" horiz-adv-x="522" d="M260 460L243 393Q213 393 193 374T172 320Q172 303 181 286T217 254T293 226Q388 202 435 162T483 51Q483 -2 455 -44T377 -111T264 -136Q190 -136 131 -102T36 12L126 68Q159 12 193 -8T273 -29Q313 -29 339 -10T365
41Q365 60 354 76T314 108T228 136Q134 158 97 201T59 302Q59 347 83 383T152 439T260 460ZM271 140L297 215Q329 215 350 236T371 290Q371 309 361 325T322 357T235 385Q141 407 102 454T62 565Q62 616 87 657T158 722T267 746Q342 746 393 718T480 638L389 575Q360
614 329 626T263 639Q225 639 202 621T178 571Q178 543 202 519T300 475Q363 460 404 436T466 379T486 297Q486 253 459 217T383 161T271 140Z" />
<glyph unicode="&#xa8;" horiz-adv-x="547" d="M106 633Q106 664 125 684T177 705Q207 705 227 685T247 633Q247 604 227 584T177 563Q145 563 126 583T106 633ZM300 633Q300 664 319 684T370 705Q401 705 420 685T440 633Q440 604 421 584T370 563Q339 563 320
583T300 633Z" />
<glyph unicode="&#xa9;" horiz-adv-x="669" d="M334 190Q275 190 223 212T131 275T69 367T47 477Q47 538 69 590T131 683T223 745T334 768Q393 768 445 746T537 683T600 591T623 477Q623 419 601 367T539 275T447 213T334 190ZM334 269Q392 269 438 296T512 371T540
477Q540 538 513 585T439 660T334 688Q277 688 231 661T156 586T128 477Q128 419 156 372T230 297T334 269ZM339 331Q278 331 237 371T196 476Q196 541 235 581T339 621Q382 621 415 603T468 544L399 509Q386 530 371 537T339 545Q312 545 296 527T279 476Q279
444 295 426T339 408Q355 408 370 415T399 444L468 409Q448 367 415 349T339 331Z" />
<glyph unicode="&#xaa;" horiz-adv-x="378" d="M168 304Q130 304 98 320T48 365T30 429Q30 468 49 496T100 539T169 554Q211 554 236 540T273 506T290 472T294 457L252 467V557Q252 579 236 595T185 612Q165 612 140 607T86 589L59 657Q95 674 126 682T200 691Q272
691 308 651T345 539V314H273L255 388L300 430Q300 397 283 369T235 322T168 304ZM184 378Q213 378 232 392T251 429Q251 450 233 465T184 481Q156 481 138 466T119 429Q119 407 137 393T184 378Z" />
<glyph unicode="&#xab;" horiz-adv-x="550" d="M182 92L39 293L183 495H303L160 292L302 92H182ZM396 92L253 293L397 495H517L374 292L516 92H396Z" />
<glyph unicode="&#xac;" horiz-adv-x="670" d="M569 93H461V367H569V93ZM569 259H102V367H569V259Z" />
<glyph unicode="&#xae;" horiz-adv-x="669" d="M284 417V486H335Q382 486 382 522Q382 558 335 558H281L304 581V342H230V627H332Q388 627 422 601T457 522Q457 470 423 444T332 417H284ZM454 342H373L311 456H394L454 342ZM334 768Q275 768 223 746T132 683T70
591T47 477Q47 419 69 367T130 275T222 213T334 190Q394 190 446 212T538 275T600 367T623 477Q623 538 600 590T538 683T446 745T334 768ZM334 269Q277 269 231 296T156 371T128 477Q128 538 156 585T230 660T334 688Q392 688 438 661T512 586T540 477Q540 419
513 372T439 297T334 269Z" />
<glyph unicode="&#xaf;" horiz-adv-x="547" d="M413 582H133V669H413V582Z" />
<glyph unicode="&#xb0;" horiz-adv-x="406" d="M203 343Q155 343 115 366T51 428T27 514Q27 563 51 602T115 664T203 687Q251 687 290 664T354 602T379 514Q379 466 355 427T291 366T203 343ZM203 432Q237 432 259 455T282 514Q282 550 260 573T203 596Q169 596
146 573T123 514Q123 478 146 455T203 432Z" />
<glyph unicode="&#xb1;" horiz-adv-x="670" d="M97 362V470H574V362H97ZM97 14V122H574V14H97ZM275 202V641H383V202H275Z" />
<glyph unicode="&#xb2;" horiz-adv-x="347" d="M312 657Q312 624 292 592T234 519L154 435L141 460H317V368H31V431L146 547Q180 582 198 607T217 652Q217 671 204 680T174 690Q156 690 137 680T97 642L26 692Q52 731 87 755T175 779Q214 779 245 763T294 720T312 657Z" />
<glyph unicode="&#xb3;" horiz-adv-x="334" d="M162 359Q117 359 80 378T20 433L79 492Q95 475 107 465T132 451T163 447Q184 447 201 457T218 488Q218 504 203 518T146 533Q136 533 124 533T101 531V606Q119 605 125 605T141 604Q168 604 185 617T202 654Q202
671 188 681T152 692Q132 692 112 680T72 644L13 705Q48 746 81 762T160 779Q220 779 257 749T294 672Q294 618 258 589T152 559L169 601Q211 601 244 587T297 548T316 493Q316 455 296 425T241 377T162 359Z" />
<glyph unicode="&#xb4;" horiz-adv-x="547" d="M231 554L174 613L329 755L387 697L231 554Z" />
<glyph unicode="&#xb5;" horiz-adv-x="552" d="M55 488H171V184Q171 136 192 120T243 103Q272 103 300 114T353 145T392 189L401 127H376V488H492V0H405L381 90H414Q389 60 357 37T290 2T218 -11Q163 -11 131 6T82 52T61 118T55 195V488ZM55 223L171 243V-190H55V223Z" />
<glyph unicode="&#xb6;" horiz-adv-x="688" d="M342 647V187H300Q232 187 176 221T87 313T53 445Q53 531 90 591T190 682T326 713H658V646L575 603H299L342 647ZM465 92V658H581V107Q581 31 556 -24T479 -110T351 -141Q312 -141 272 -128T195 -82T129 7L125 16L217
65Q250 4 280 -15T348 -35Q399 -35 432 -3T465 92Z" />
<glyph unicode="&#xb7;" horiz-adv-x="273" d="M136 194Q113 194 93 206T61 238T49 281Q49 305 61 324T93 356T136 368Q161 368 180 356T212 325T224 281Q224 258 212 238T181 206T136 194Z" />
<glyph unicode="&#xb8;" horiz-adv-x="547" d="M267 -208Q235 -208 209 -200T162 -180L189 -125Q204 -133 222 -139T261 -145Q284 -145 295 -137T307 -116Q307 -105 297 -98T257 -91H205L225 0H294L281 -69L259 -34Q318 -34 347 -55T376 -115Q376 -159 348 -183T267
-208Z" />
<glyph unicode="&#xb9;" horiz-adv-x="237" d="M104 690L135 675Q127 650 94 635T10 620V711Q43 711 69 718T111 739T133 771H201V368H104V690Z" />
<glyph unicode="&#xba;" horiz-adv-x="442" d="M220 303Q163 303 120 327T53 395T29 496Q29 553 53 596T120 664T221 689Q278 689 321 664T389 596T413 496Q413 439 389 396T322 328T220 303ZM221 395Q262 395 286 423T311 496Q311 541 287 569T221 597Q180 597
156 569T131 496Q131 452 155 424T221 395Z" />
<glyph unicode="&#xbb;" horiz-adv-x="550" d="M34 92L176 292L33 495H153L297 293L154 92H34ZM248 92L390 292L247 495H367L511 293L368 92H248Z" />
<glyph unicode="&#xbc;" horiz-adv-x="844" d="M104 856L135 841Q127 816 94 801T10 786V877Q43 877 69 884T111 905T133 937H201V534H104V856ZM159 -46L87 -1L564 703L638 661L159 -46ZM775 278V0H680V140L679 167L706 278H775ZM487 83V128L580 403H674L579 120L571
174H829V83H487Z" />
<glyph unicode="&#xbd;" horiz-adv-x="834" d="M104 856L135 841Q127 816 94 801T10 786V877Q43 877 69 884T111 905T133 937H201V534H104V856ZM159 -46L87 -1L564 703L638 661L159 -46ZM799 289Q799 256 779 224T721 151L641 67L628 92H804V0H518V63L633 179Q667
214 685 239T704 284Q704 303 691 312T661 322Q643 322 624 312T584 274L513 324Q539 363 574 387T662 411Q701 411 732 395T781 352T799 289Z" />
<glyph unicode="&#xbe;" horiz-adv-x="936" d="M162 525Q117 525 80 544T20 599L79 658Q95 641 107 631T132 617T163 613Q184 613 201 623T218 654Q218 670 203 684T146 699Q136 699 124 699T101 697V772Q119 771 125 771T141 770Q168 770 185 783T202 820Q202
837 188 847T152 858Q132 858 112 846T72 810L13 871Q48 912 81 928T160 945Q220 945 257 915T294 838Q294 784 258 755T152 725L169 767Q211 767 244 753T297 714T316 659Q316 621 296 591T241 543T162 525ZM251 -46L179 -1L656 703L730 661L251 -46ZM867 278V0H772V140L771
167L798 278H867ZM579 83V128L672 403H766L671 120L663 174H921V83H579Z" />
<glyph unicode="&#xbf;" horiz-adv-x="496" d="M303 327L362 232L295 189Q248 159 219 135T177 86T164 28Q164 -18 195 -46T271 -75Q295 -75 319 -69T367 -47T417 -6L436 13L508 -67L493 -83Q451 -127 396 -157T266 -188Q201 -188 152 -159T74 -82T45 28Q45 70
60 110T112 190T218 274L303 327ZM277 537Q311 537 335 513T360 454Q360 420 336 395T277 370Q243 370 218 395T193 454Q193 489 217 513T277 537Z" />
<glyph unicode="&#xc0;" horiz-adv-x="659" d="M152 256H503V148H152V256ZM17 0L259 681H404L643 0H525L318 601H346L134 0H17ZM336 747L181 890L238 948L393 806L336 747Z" />
<glyph unicode="&#xc1;" horiz-adv-x="659" d="M152 256H503V148H152V256ZM17 0L259 681H404L643 0H525L318 601H346L134 0H17ZM324 747L267 806L422 948L480 890L324 747Z" />
<glyph unicode="&#xc2;" horiz-adv-x="659" d="M152 256H503V148H152V256ZM17 0L259 681H404L643 0H525L318 601H346L134 0H17ZM242 749L184 806L331 946L478 806L420 749L299 868L363 867L242 749Z" />
<glyph unicode="&#xc3;" horiz-adv-x="659" d="M152 256H503V148H152V256ZM17 0L259 681H404L643 0H525L318 601H346L134 0H17ZM397 766Q361 766 321 793Q304 804 294 809T272 814Q243 814 222 771L147 808Q168 853 196 877T265 902Q287 902 307 895T350 872Q362
864 372 859T393 854Q409 854 419 864T441 902L516 865Q498 818 470 792T397 766Z" />
<glyph unicode="&#xc4;" horiz-adv-x="659" d="M152 256H503V148H152V256ZM17 0L259 681H404L643 0H525L318 601H346L134 0H17ZM165 826Q165 857 184 877T236 898Q266 898 286 878T306 826Q306 797 286 777T236 756Q204 756 185 776T165 826ZM359 826Q359 857
378 877T429 898Q460 898 479 878T499 826Q499 797 480 777T429 756Q398 756 379 776T359 826Z" />
<glyph unicode="&#xc5;" horiz-adv-x="659" d="M152 256H503V148H152V256ZM17 0L259 681H404L643 0H525L318 601H346L134 0H17ZM332 752Q301 752 276 766T236 804T221 859Q221 890 236 915T276 954T332 968Q363 968 387 954T427 915T442 859Q442 829 427 805T388
766T332 752ZM331 823Q347 823 357 833T368 859Q368 876 358 886T331 897Q315 897 305 887T294 859Q294 844 304 834T331 823Z" />
<glyph unicode="&#xc6;" horiz-adv-x="841" d="M423 0L360 681H770V571H443L483 617L532 66L499 110H791V0H423ZM134 160V269H472V160H134ZM17 0L285 681H408L132 0H17ZM471 282V392H732V282H471Z" />
<glyph unicode="&#xc7;" horiz-adv-x="705" d="M372 -11Q268 -11 190 34T70 159T27 340Q27 416 52 480T124 592T234 665T372 691Q489 691 564 642T684 507L574 470Q532 531 483 555T372 579Q307 579 256 549T175 464T145 340Q145 270 175 216T256 132T372 101Q433
101 482 125T574 210L684 173Q639 87 564 38T372 -11ZM364 -208Q332 -208 306 -200T259 -180L286 -125Q301 -133 319 -139T358 -145Q381 -145 392 -137T404 -116Q404 -105 394 -98T354 -91H302L322 0H391L378 -69L356 -34Q415 -34 444 -55T473 -115Q473 -159 445
-183T364 -208Z" />
<glyph unicode="&#xc8;" horiz-adv-x="547" d="M162 287V397H439V287H162ZM159 571L192 613V79L154 110H497V0H76V681H497V571H159ZM290 747L135 890L192 948L347 806L290 747Z" />
<glyph unicode="&#xc9;" horiz-adv-x="547" d="M162 287V397H439V287H162ZM159 571L192 613V79L154 110H497V0H76V681H497V571H159ZM278 747L221 806L376 948L434 890L278 747Z" />
<glyph unicode="&#xca;" horiz-adv-x="547" d="M162 287V397H439V287H162ZM159 571L192 613V79L154 110H497V0H76V681H497V571H159ZM197 749L139 806L286 946L433 806L375 749L254 868L318 867L197 749Z" />
<glyph unicode="&#xcb;" horiz-adv-x="547" d="M162 287V397H439V287H162ZM159 571L192 613V79L154 110H497V0H76V681H497V571H159ZM119 826Q119 857 138 877T190 898Q220 898 240 878T260 826Q260 797 240 777T190 756Q158 756 139 776T119 826ZM313 826Q313
857 332 877T383 898Q414 898 433 878T453 826Q453 797 434 777T383 756Q352 756 333 776T313 826Z" />
<glyph unicode="&#xcc;" horiz-adv-x="269" d="M192 0H76V681H192V0ZM138 747L-17 890L40 948L195 806L138 747Z" />
<glyph unicode="&#xcd;" horiz-adv-x="269" d="M192 0H76V681H192V0ZM126 747L69 806L224 948L282 890L126 747Z" />
<glyph unicode="&#xce;" horiz-adv-x="269" d="M192 0H76V681H192V0ZM65 749L1 804L133 948L265 804L200 749L105 861H160L65 749Z" />
<glyph unicode="&#xcf;" horiz-adv-x="269" d="M192 0H76V681H192V0ZM212 756Q180 756 161 776T142 826Q142 858 161 878T212 898Q243 898 262 878T282 826Q282 796 263 776T212 756ZM57 756Q25 756 6 776T-13 826Q-13 858 6 878T57 898Q88 898 107 878T127 826Q127
796 108 776T57 756Z" />
<glyph unicode="&#xd0;" horiz-adv-x="714" d="M99 0V681H328Q429 681 506 640T626 523T669 339Q669 231 626 155T505 40T327 0H99ZM22 287V393H359V287H22ZM215 77L175 110H320Q385 110 436 134T518 209T549 339Q549 416 519 467T438 545T321 571H169L215 609V77Z" />
<glyph unicode="&#xd1;" horiz-adv-x="728" d="M550 0L134 548L192 564V0H76V681H178L582 149L536 146V681H652V0H550ZM433 766Q397 766 357 793Q340 804 330 809T308 814Q279 814 258 771L183 808Q204 853 232 877T301 902Q323 902 343 895T386 872Q398 864 408
859T429 854Q445 854 455 864T477 902L552 865Q534 818 506 792T433 766Z" />
<glyph unicode="&#xd2;" horiz-adv-x="757" d="M27 340Q27 416 53 480T126 592T238 665T380 691Q455 691 519 665T630 592T704 481T730 340Q730 264 704 200T631 89T519 15T380 -11Q303 -11 239 15T127 88T53 200T27 340ZM145 340Q145 270 175 217T259 133T380
102Q447 102 499 132T582 217T612 340Q612 411 582 464T500 548T380 578Q312 578 259 548T176 464T145 340ZM382 747L227 890L284 948L439 806L382 747Z" />
<glyph unicode="&#xd3;" horiz-adv-x="757" d="M27 340Q27 416 53 480T126 592T238 665T380 691Q455 691 519 665T630 592T704 481T730 340Q730 264 704 200T631 89T519 15T380 -11Q303 -11 239 15T127 88T53 200T27 340ZM145 340Q145 270 175 217T259 133T380
102Q447 102 499 132T582 217T612 340Q612 411 582 464T500 548T380 578Q312 578 259 548T176 464T145 340ZM370 747L313 806L468 948L526 890L370 747Z" />
<glyph unicode="&#xd4;" horiz-adv-x="757" d="M27 340Q27 416 53 480T126 592T238 665T380 691Q455 691 519 665T630 592T704 481T730 340Q730 264 704 200T631 89T519 15T380 -11Q303 -11 239 15T127 88T53 200T27 340ZM145 340Q145 270 175 217T259 133T380
102Q447 102 499 132T582 217T612 340Q612 411 582 464T500 548T380 578Q312 578 259 548T176 464T145 340ZM288 749L230 806L377 946L524 806L466 749L345 868L409 867L288 749Z" />
<glyph unicode="&#xd5;" horiz-adv-x="757" d="M27 340Q27 416 53 480T126 592T238 665T380 691Q455 691 519 665T630 592T704 481T730 340Q730 264 704 200T631 89T519 15T380 -11Q303 -11 239 15T127 88T53 200T27 340ZM145 340Q145 270 175 217T259 133T380
102Q447 102 499 132T582 217T612 340Q612 411 582 464T500 548T380 578Q312 578 259 548T176 464T145 340ZM443 766Q407 766 367 793Q350 804 340 809T318 814Q289 814 268 771L193 808Q214 853 242 877T311 902Q333 902 353 895T396 872Q408 864 418 859T439
854Q455 854 465 864T487 902L562 865Q544 818 516 792T443 766Z" />
<glyph unicode="&#xd6;" horiz-adv-x="757" d="M27 340Q27 416 53 480T126 592T238 665T380 691Q455 691 519 665T630 592T704 481T730 340Q730 264 704 200T631 89T519 15T380 -11Q303 -11 239 15T127 88T53 200T27 340ZM145 340Q145 270 175 217T259 133T380
102Q447 102 499 132T582 217T612 340Q612 411 582 464T500 548T380 578Q312 578 259 548T176 464T145 340ZM211 826Q211 857 230 877T282 898Q312 898 332 878T352 826Q352 797 332 777T282 756Q250 756 231 776T211 826ZM405 826Q405 857 424 877T475 898Q506
898 525 878T545 826Q545 797 526 777T475 756Q444 756 425 776T405 826Z" />
<glyph unicode="&#xd7;" horiz-adv-x="670" d="M560 190L486 116L111 491L185 565L560 190ZM111 190L486 565L560 491L185 116L111 190Z" />
<glyph unicode="&#xd8;" horiz-adv-x="757" d="M694 660L137 -41L54 20L612 722L694 660ZM27 340Q27 416 53 480T126 592T238 665T380 691Q455 691 519 665T630 592T704 481T730 340Q730 264 704 200T631 89T519 15T380 -11Q303 -11 239 15T127 88T53 200T27 340ZM145
340Q145 270 175 217T259 133T380 102Q447 102 499 132T582 217T612 340Q612 411 582 464T500 548T380 578Q312 578 259 548T176 464T145 340Z" />
<glyph unicode="&#xd9;" horiz-adv-x="681" d="M340 -11Q259 -11 199 20T106 113T72 265V681H188V274Q188 192 227 147T340 101Q415 101 454 146T493 274V681H609V265Q609 175 576 113T482 20T340 -11ZM344 747L189 890L246 948L401 806L344 747Z" />
<glyph unicode="&#xda;" horiz-adv-x="681" d="M340 -11Q259 -11 199 20T106 113T72 265V681H188V274Q188 192 227 147T340 101Q415 101 454 146T493 274V681H609V265Q609 175 576 113T482 20T340 -11ZM332 747L275 806L430 948L488 890L332 747Z" />
<glyph unicode="&#xdb;" horiz-adv-x="681" d="M340 -11Q259 -11 199 20T106 113T72 265V681H188V274Q188 192 227 147T340 101Q415 101 454 146T493 274V681H609V265Q609 175 576 113T482 20T340 -11ZM250 749L192 806L339 946L486 806L428 749L307 868L371 867L250
749Z" />
<glyph unicode="&#xdc;" horiz-adv-x="681" d="M340 -11Q259 -11 199 20T106 113T72 265V681H188V274Q188 192 227 147T340 101Q415 101 454 146T493 274V681H609V265Q609 175 576 113T482 20T340 -11ZM173 826Q173 857 192 877T244 898Q274 898 294 878T314 826Q314
797 294 777T244 756Q212 756 193 776T173 826ZM367 826Q367 857 386 877T437 898Q468 898 487 878T507 826Q507 797 488 777T437 756Q406 756 387 776T367 826Z" />
<glyph unicode="&#xdd;" horiz-adv-x="572" d="M318 300H252L444 681H571L330 220L343 305V0H227V305L239 220L-1 681H128L318 300ZM277 747L220 806L375 948L433 890L277 747Z" />
<glyph unicode="&#xde;" horiz-adv-x="585" d="M76 0V681H192V0H76ZM169 104V215H304Q366 215 402 248T439 340Q439 403 403 434T304 466H168V576H319Q391 576 445 545T529 461T559 340Q559 272 529 219T445 135T319 104H169Z" />
<glyph unicode="&#xdf;" horiz-adv-x="567" d="M380 -16Q331 -16 284 7T203 84L278 149Q297 112 319 96T373 80Q399 80 415 94T431 131Q431 149 415 170T349 227Q308 256 287 285T266 346Q266 380 281 402T321 449Q339 466 351 481T364 518Q364 545 343 563T279
581Q232 581 203 551T174 464V0H58V464Q58 532 84 583T160 663T281 692Q342 692 388 670T459 610T485 529Q485 485 465 459T420 409Q403 394 393 381T382 351Q382 335 394 322T439 284Q492 247 516 210T541 127Q541 64 496 24T380 -16Z" />
<glyph unicode="&#xe0;" horiz-adv-x="498" d="M211 -14Q155 -14 115 6T52 64T30 152Q30 202 52 239T116 297T211 319Q282 319 325 287T385 197L327 201V322Q327 352 307 376T237 400Q209 400 175 394T105 370L70 456Q112 477 158 488T251 499Q316 499 358 476T422
412T443 320V0H354L328 91L385 108Q368 48 323 17T211 -14ZM238 81Q278 81 302 100T327 152Q327 187 303 205T238 224Q198 224 174 206T149 152Q149 119 173 100T238 81ZM508 554L353 697L410 755L565 613L508 554Z" />
<glyph unicode="&#xe1;" horiz-adv-x="498" d="M211 -14Q155 -14 115 6T52 64T30 152Q30 202 52 239T116 297T211 319Q282 319 325 287T385 197L327 201V322Q327 352 307 376T237 400Q209 400 175 394T105 370L70 456Q112 477 158 488T251 499Q316 499 358 476T422
412T443 320V0H354L328 91L385 108Q368 48 323 17T211 -14ZM238 81Q278 81 302 100T327 152Q327 187 303 205T238 224Q198 224 174 206T149 152Q149 119 173 100T238 81ZM240 554L183 613L338 755L396 697L240 554Z" />
<glyph unicode="&#xe2;" horiz-adv-x="498" d="M211 -14Q155 -14 115 6T52 64T30 152Q30 202 52 239T116 297T211 319Q282 319 325 287T385 197L327 201V322Q327 352 307 376T237 400Q209 400 175 394T105 370L70 456Q112 477 158 488T251 499Q316 499 358 476T422
412T443 320V0H354L328 91L385 108Q368 48 323 17T211 -14ZM238 81Q278 81 302 100T327 152Q327 187 303 205T238 224Q198 224 174 206T149 152Q149 119 173 100T238 81ZM414 556L356 613L503 753L650 613L592 556L471 675L535 674L414 556Z" />
<glyph unicode="&#xe3;" horiz-adv-x="498" d="M211 -14Q155 -14 115 6T52 64T30 152Q30 202 52 239T116 297T211 319Q282 319 325 287T385 197L327 201V322Q327 352 307 376T237 400Q209 400 175 394T105 370L70 456Q112 477 158 488T251 499Q316 499 358 476T422
412T443 320V0H354L328 91L385 108Q368 48 323 17T211 -14ZM238 81Q278 81 302 100T327 152Q327 187 303 205T238 224Q198 224 174 206T149 152Q149 119 173 100T238 81ZM570 573Q534 573 494 600Q477 611 467 616T445 621Q416 621 395 578L320 615Q341 660 369
684T438 709Q460 709 480 702T523 679Q535 671 545 666T566 661Q582 661 592 671T614 709L689 672Q671 625 643 599T570 573Z" />
<glyph unicode="&#xe4;" horiz-adv-x="498" d="M211 -14Q155 -14 115 6T52 64T30 152Q30 202 52 239T116 297T211 319Q282 319 325 287T385 197L327 201V322Q327 352 307 376T237 400Q209 400 175 394T105 370L70 456Q112 477 158 488T251 499Q316 499 358 476T422
412T443 320V0H354L328 91L385 108Q368 48 323 17T211 -14ZM238 81Q278 81 302 100T327 152Q327 187 303 205T238 224Q198 224 174 206T149 152Q149 119 173 100T238 81ZM337 633Q337 664 356 684T408 705Q438 705 458 685T478 633Q478 604 458 584T408 563Q376
563 357 583T337 633ZM531 633Q531 664 550 684T601 705Q632 705 651 685T671 633Q671 604 652 584T601 563Q570 563 551 583T531 633Z" />
<glyph unicode="&#xe5;" horiz-adv-x="498" d="M211 -14Q155 -14 115 6T52 64T30 152Q30 202 52 239T116 297T211 319Q282 319 325 287T385 197L327 201V322Q327 352 307 376T237 400Q209 400 175 394T105 370L70 456Q112 477 158 488T251 499Q316 499 358 476T422
412T443 320V0H354L328 91L385 108Q368 48 323 17T211 -14ZM238 81Q278 81 302 100T327 152Q327 187 303 205T238 224Q198 224 174 206T149 152Q149 119 173 100T238 81ZM505 559Q474 559 449 573T409 611T394 666Q394 697 409 722T449 761T505 775Q536 775 560
761T600 722T615 666Q615 636 600 612T561 573T505 559ZM504 630Q520 630 530 640T541 666Q541 683 531 693T504 704Q488 704 478 694T467 666Q467 651 477 641T504 630Z" />
<glyph unicode="&#xe6;" horiz-adv-x="779" d="M214 -14Q128 -14 79 30T30 152Q30 202 52 239T116 297T211 319Q277 319 317 287T373 197L323 201V322Q323 352 303 376T233 400Q206 400 173 394T103 370L68 456Q110 477 155 488T245 499Q308 499 350 476T412 412T433
320V91H324L398 108Q376 46 329 16T214 -14ZM239 81Q279 81 303 100T327 152Q327 187 303 205T239 224Q198 224 174 206T150 152Q150 119 174 100T239 81ZM551 -11Q482 -11 431 20T352 109T325 243Q325 320 352 377T428 467T542 499Q610 499 656 470T727 388T752
260Q752 246 751 233T749 209H422V293H663L639 274Q642 338 616 372T543 407Q494 407 464 374T434 274V221Q434 159 464 123T552 86Q595 86 621 106T664 166L748 116Q724 54 671 22T551 -11Z" />
<glyph unicode="&#xe7;" horiz-adv-x="510" d="M277 -11Q202 -11 147 22T61 112T30 244Q30 319 60 376T146 466T277 499Q352 499 410 460T495 356L387 309Q372 347 343 367T275 387Q221 387 185 350T148 244Q148 177 184 139T275 101Q314 101 343 121T387 179L495
133Q468 68 410 29T277 -11ZM521 -208Q489 -208 463 -200T416 -180L443 -125Q458 -133 476 -139T515 -145Q538 -145 549 -137T561 -116Q561 -105 551 -98T511 -91H459L479 0H548L535 -69L513 -34Q572 -34 601 -55T630 -115Q630 -159 602 -183T521 -208Z" />
<glyph unicode="&#xe8;" horiz-adv-x="540" d="M271 -10Q199 -10 145 21T61 110T30 243Q30 320 60 377T145 467T271 499Q344 499 398 467T483 377T513 244Q513 235 513 226T511 210H132V303H425L401 250Q401 319 369 363T272 407Q213 407 179 371T144 274V221Q144
159 178 123T274 86Q329 86 359 109T412 166L495 116Q462 54 407 22T271 -10ZM532 554L377 697L434 755L589 613L532 554Z" />
<glyph unicode="&#xe9;" horiz-adv-x="540" d="M271 -10Q199 -10 145 21T61 110T30 243Q30 320 60 377T145 467T271 499Q344 499 398 467T483 377T513 244Q513 235 513 226T511 210H132V303H425L401 250Q401 319 369 363T272 407Q213 407 179 371T144 274V221Q144
159 178 123T274 86Q329 86 359 109T412 166L495 116Q462 54 407 22T271 -10ZM264 554L207 613L362 755L420 697L264 554Z" />
<glyph unicode="&#xea;" horiz-adv-x="540" d="M271 -10Q199 -10 145 21T61 110T30 243Q30 320 60 377T145 467T271 499Q344 499 398 467T483 377T513 244Q513 235 513 226T511 210H132V303H425L401 250Q401 319 369 363T272 407Q213 407 179 371T144 274V221Q144
159 178 123T274 86Q329 86 359 109T412 166L495 116Q462 54 407 22T271 -10ZM438 556L380 613L527 753L674 613L616 556L495 675L559 674L438 556Z" />
<glyph unicode="&#xeb;" horiz-adv-x="540" d="M271 -10Q199 -10 145 21T61 110T30 243Q30 320 60 377T145 467T271 499Q344 499 398 467T483 377T513 244Q513 235 513 226T511 210H132V303H425L401 250Q401 319 369 363T272 407Q213 407 179 371T144 274V221Q144
159 178 123T274 86Q329 86 359 109T412 166L495 116Q462 54 407 22T271 -10ZM361 633Q361 664 380 684T432 705Q462 705 482 685T502 633Q502 604 482 584T432 563Q400 563 381 583T361 633ZM555 633Q555 664 574 684T625 705Q656 705 675 685T695 633Q695 604
676 584T625 563Q594 563 575 583T555 633Z" />
<glyph unicode="&#xec;" horiz-adv-x="240" d="M178 0H62V488H178V0ZM123 554L-32 697L25 755L180 613L123 554Z" />
<glyph unicode="&#xed;" horiz-adv-x="240" d="M178 0H62V488H178V0ZM367 554L310 613L465 755L523 697L367 554Z" />
<glyph unicode="&#xee;" horiz-adv-x="240" d="M178 0H62V488H178V0ZM51 556L-13 611L119 755L251 611L186 556L91 668H146L51 556Z" />
<glyph unicode="&#xef;" horiz-adv-x="240" d="M178 0H62V488H178V0ZM197 563Q165 563 146 583T127 633Q127 665 146 685T197 705Q228 705 247 685T267 633Q267 603 248 583T197 563ZM42 563Q10 563 -9 583T-28 633Q-28 665 -9 685T42 705Q73 705 92 685T112 633Q112
603 93 583T42 563Z" />
<glyph unicode="&#xf0;" horiz-adv-x="556" d="M273 -11Q204 -11 151 19T69 101T39 219Q39 289 68 340T146 420T255 448Q320 448 364 417T425 335H418Q410 399 374 455T270 554T99 620L139 710L162 704Q237 685 295 654T395 582T465 492T505 388T519 276Q519 185
489 121T403 23T273 -11ZM279 94Q332 94 367 129T402 219Q402 274 367 308T279 343Q225 343 190 309T155 219Q155 164 190 129T279 94ZM211 468L161 531L255 605L290 642L381 714L431 650L354 590L309 546L211 468Z" />
<glyph unicode="&#xf1;" horiz-adv-x="552" d="M346 499Q398 499 428 482T473 436T492 370T497 294V0H381V304Q381 353 361 369T310 386Q282 386 253 375T199 344T160 299L151 362H176V0H60V488H147L171 399L137 398Q165 429 198 451T268 486T346 499ZM343 573Q307
573 267 600Q250 611 240 616T218 621Q189 621 168 578L93 615Q114 660 142 684T211 709Q233 709 253 702T296 679Q308 671 318 666T339 661Q355 661 365 671T387 709L462 672Q444 625 416 599T343 573Z" />
<glyph unicode="&#xf2;" horiz-adv-x="567" d="M283 -11Q208 -11 151 21T63 110T31 243Q31 320 62 377T151 467T283 499Q358 499 415 467T503 378T535 243Q535 168 504 111T415 21T283 -11ZM283 101Q343 101 380 140T417 244Q417 308 380 347T283 387Q223 387
186 348T149 244Q149 180 186 141T283 101ZM542 554L387 697L444 755L599 613L542 554Z" />
<glyph unicode="&#xf3;" horiz-adv-x="567" d="M283 -11Q208 -11 151 21T63 110T31 243Q31 320 62 377T151 467T283 499Q358 499 415 467T503 378T535 243Q535 168 504 111T415 21T283 -11ZM283 101Q343 101 380 140T417 244Q417 308 380 347T283 387Q223 387
186 348T149 244Q149 180 186 141T283 101ZM274 554L217 613L372 755L430 697L274 554Z" />
<glyph unicode="&#xf4;" horiz-adv-x="567" d="M283 -11Q208 -11 151 21T63 110T31 243Q31 320 62 377T151 467T283 499Q358 499 415 467T503 378T535 243Q535 168 504 111T415 21T283 -11ZM283 101Q343 101 380 140T417 244Q417 308 380 347T283 387Q223 387
186 348T149 244Q149 180 186 141T283 101ZM193 556L135 613L282 753L429 613L371 556L250 675L314 674L193 556Z" />
<glyph unicode="&#xf5;" horiz-adv-x="567" d="M283 -11Q208 -11 151 21T63 110T31 243Q31 320 62 377T151 467T283 499Q358 499 415 467T503 378T535 243Q535 168 504 111T415 21T283 -11ZM283 101Q343 101 380 140T417 244Q417 308 380 347T283 387Q223 387
186 348T149 244Q149 180 186 141T283 101ZM348 573Q312 573 272 600Q255 611 245 616T223 621Q194 621 173 578L98 615Q119 660 147 684T216 709Q238 709 258 702T301 679Q313 671 323 666T344 661Q360 661 370 671T392 709L467 672Q449 625 421 599T348 573Z"
/>
<glyph unicode="&#xf6;" horiz-adv-x="567" d="M283 -11Q208 -11 151 21T63 110T31 243Q31 320 62 377T151 467T283 499Q358 499 415 467T503 378T535 243Q535 168 504 111T415 21T283 -11ZM283 101Q343 101 380 140T417 244Q417 308 380 347T283 387Q223 387
186 348T149 244Q149 180 186 141T283 101ZM115 633Q115 664 134 684T186 705Q216 705 236 685T256 633Q256 604 236 584T186 563Q154 563 135 583T115 633ZM309 633Q309 664 328 684T379 705Q410 705 429 685T449 633Q449 604 430 584T379 563Q348 563 329 583T309
633Z" />
<glyph unicode="&#xf7;" horiz-adv-x="670" d="M333 73Q297 73 273 96T249 152Q249 185 273 208T333 231Q369 231 393 208T417 152Q417 120 393 97T333 73ZM333 450Q297 450 273 473T249 529Q249 562 273 585T333 608Q369 608 393 585T417 529Q417 496 393 473T333
450ZM584 287H87V395H584V287Z" />
<glyph unicode="&#xf8;" horiz-adv-x="584" d="M292 -11Q217 -11 160 21T72 110T40 243Q40 320 71 377T160 467T292 499Q367 499 424 467T512 378T544 243Q544 168 513 111T424 21T292 -11ZM292 93Q356 93 396 134T436 243Q436 312 396 354T292 396Q228 396 189
355T149 244Q149 176 188 135T292 93ZM131 -30L61 21L455 529L523 477L131 -30Z" />
<glyph unicode="&#xf9;" horiz-adv-x="552" d="M218 -11Q163 -11 131 6T82 52T61 118T55 195V488H171V184Q171 136 192 120T243 103Q272 103 300 114T353 145T392 189L401 127H376V488H492V0H405L381 90H414Q389 60 357 37T290 2T218 -11ZM534 554L379 697L436
755L591 613L534 554Z" />
<glyph unicode="&#xfa;" horiz-adv-x="552" d="M218 -11Q163 -11 131 6T82 52T61 118T55 195V488H171V184Q171 136 192 120T243 103Q272 103 300 114T353 145T392 189L401 127H376V488H492V0H405L381 90H414Q389 60 357 37T290 2T218 -11ZM266 554L209 613L364
755L422 697L266 554Z" />
<glyph unicode="&#xfb;" horiz-adv-x="552" d="M218 -11Q163 -11 131 6T82 52T61 118T55 195V488H171V184Q171 136 192 120T243 103Q272 103 300 114T353 145T392 189L401 127H376V488H492V0H405L381 90H414Q389 60 357 37T290 2T218 -11ZM440 556L382 613L529
753L676 613L618 556L497 675L561 674L440 556Z" />
<glyph unicode="&#xfc;" horiz-adv-x="552" d="M218 -11Q163 -11 131 6T82 52T61 118T55 195V488H171V184Q171 136 192 120T243 103Q272 103 300 114T353 145T392 189L401 127H376V488H492V0H405L381 90H414Q389 60 357 37T290 2T218 -11ZM107 633Q107 664 126
684T178 705Q208 705 228 685T248 633Q248 604 228 584T178 563Q146 563 127 583T107 633ZM301 633Q301 664 320 684T371 705Q402 705 421 685T441 633Q441 604 422 584T371 563Q340 563 321 583T301 633Z" />
<glyph unicode="&#xfd;" horiz-adv-x="518" d="M207 53L13 488H133L309 93L207 53ZM87 -190L390 488H510L207 -190H87ZM253 554L196 613L351 755L409 697L253 554Z" />
<glyph unicode="&#xfe;" horiz-adv-x="570" d="M315 -11Q249 -11 201 20T125 108T98 243Q98 321 125 378T201 467T315 499Q383 499 433 467T512 378T540 243Q540 168 512 111T433 21T315 -11ZM60 -190V681H176V381H166V120H176V-190H60ZM296 93Q352 93 387 134T422
243Q422 311 387 353T296 395Q241 395 206 354T170 244Q170 176 205 135T296 93Z" />
<glyph unicode="&#xff;" horiz-adv-x="518" d="M207 53L13 488H133L309 93L207 53ZM87 -190L390 488H510L207 -190H87ZM350 633Q350 664 369 684T421 705Q451 705 471 685T491 633Q491 604 471 584T421 563Q389 563 370 583T350 633ZM544 633Q544 664 563 684T614
705Q645 705 664 685T684 633Q684 604 665 584T614 563Q583 563 564 583T544 633Z" />
<glyph unicode="&#x2013;" horiz-adv-x="570" d="M548 234H22V340H548V234Z" />
<glyph unicode="&#x2014;" horiz-adv-x="988" d="M968 234H20V340H968V234Z" />
<glyph unicode="&#x2018;" horiz-adv-x="205" d="M111 399Q88 399 68 411T34 447T21 500Q21 534 35 569T80 640T156 706L193 667Q163 634 147 600T130 536Q130 503 147 484T190 449Q181 424 158 412T111 399Z" />
<glyph unicode="&#x2019;" horiz-adv-x="205" d="M49 390L12 429Q43 462 59 496T75 560Q75 593 58 612T15 647Q24 672 47 684T94 697Q117 697 138 685T172 650T185 596Q185 546 152 491T49 390Z" />
<glyph unicode="&#x201a;" horiz-adv-x="205" d="M53 -185L16 -146Q47 -113 63 -79T79 -15Q79 18 62 37T19 72Q28 97 51 109T98 122Q121 122 142 110T176 75T189 21Q189 -29 156 -84T53 -185Z" />
<glyph unicode="&#x201c;" horiz-adv-x="419" d="M111 399Q88 399 68 411T34 447T21 500Q21 534 35 569T80 640T156 706L193 667Q163 634 147 600T130 536Q130 503 147 484T190 449Q181 424 158 412T111 399ZM324 399Q301 399 281 411T247 447T234 500Q234 534
248 569T293 640T369 706L406 667Q376 634 360 600T343 536Q343 503 360 484T403 449Q394 424 371 412T324 399Z" />
<glyph unicode="&#x201d;" horiz-adv-x="418" d="M49 390L12 429Q43 462 59 496T75 560Q75 593 58 612T15 647Q24 672 47 684T94 697Q117 697 138 685T172 650T185 596Q185 546 152 491T49 390ZM262 390L225 429Q256 462 272 496T288 560Q288 593 271 612T228
647Q237 672 260 684T307 697Q330 697 351 685T385 650T398 596Q398 546 365 491T262 390Z" />
<glyph unicode="&#x201e;" horiz-adv-x="419" d="M53 -184L16 -145Q47 -112 63 -78T79 -14Q79 19 62 38T19 73Q28 98 51 110T98 123Q121 123 142 111T176 76T189 22Q189 -28 156 -83T53 -184ZM266 -184L229 -145Q260 -112 276 -78T292 -14Q292 19 275 38T232 73Q241
98 264 110T311 123Q334 123 355 111T389 76T402 22Q402 -28 369 -83T266 -184Z" />
<glyph unicode="&#x2022;" horiz-adv-x="379" d="M190 148Q154 148 124 166T76 214T58 280Q58 316 76 346T124 395T190 413Q226 413 255 395T303 347T321 280Q321 244 303 214T256 166T190 148Z" />
<glyph unicode="&#x2039;" horiz-adv-x="336" d="M182 92L39 293L183 495H303L160 292L302 92H182Z" />
<glyph unicode="&#x203a;" horiz-adv-x="336" d="M34 92L176 292L33 495H153L297 293L154 92H34Z" />
</font>
</defs>
</svg>
